<?xml version="1.0" encoding="UTF-8" standalone="no"?>
<!-- Created with Inkscape (http://www.inkscape.org/) -->

<svg
   xmlns:dc="http://purl.org/dc/elements/1.1/"
   xmlns:cc="http://creativecommons.org/ns#"
   xmlns:rdf="http://www.w3.org/1999/02/22-rdf-syntax-ns#"
   xmlns:svg="http://www.w3.org/2000/svg"
   xmlns="http://www.w3.org/2000/svg"
   xmlns:sodipodi="http://sodipodi.sourceforge.net/DTD/sodipodi-0.dtd"
   xmlns:inkscape="http://www.inkscape.org/namespaces/inkscape"
   width="744.09448819"
   height="1052.3622047"
   id="svg2"
   version="1.1"
   inkscape:version="0.48.1 r9760"
   sodipodi:docname="analog.pdf">
  <defs
     id="defs4" />
  <sodipodi:namedview
     id="base"
     pagecolor="#ffffff"
     bordercolor="#666666"
     borderopacity="1.0"
     inkscape:pageopacity="0.0"
     inkscape:pageshadow="2"
     inkscape:zoom="1.4"
     inkscape:cx="222.3957"
     inkscape:cy="586.27363"
     inkscape:document-units="px"
     inkscape:current-layer="layer1"
     showgrid="false"
     inkscape:window-width="1364"
     inkscape:window-height="748"
     inkscape:window-x="0"
     inkscape:window-y="18"
     inkscape:window-maximized="0" />
  <metadata
     id="metadata7">
    <rdf:RDF>
      <cc:Work
         rdf:about="">
        <dc:format>image/svg+xml</dc:format>
        <dc:type
           rdf:resource="http://purl.org/dc/dcmitype/StillImage" />
        <dc:title></dc:title>
      </cc:Work>
    </rdf:RDF>
  </metadata>
  <g
     inkscape:label="Layer 1"
     inkscape:groupmode="layer"
     id="layer1">
    <path
       style="fill:#000000"
       d="m 26.429654,839.91762 0,-4 -9,0 c -5.333333,0 -9.0000005,-0.40741 -9.0000005,-1 0,-0.59259 3.6666675,-1 9.0000005,-1 l 9,0 0,-40.5 0,-40.5 -10.5,0 c -6.3333335,0 -10.5000005,-0.39683 -10.5000005,-1 0,-0.60317 4.166667,-1 10.5000005,-1 l 10.5,0 0,-39 0,-39 -10.5,0 c -6.3333335,0 -10.5000005,-0.39683 -10.5000005,-1 0,-0.60317 4.166667,-1 10.5000005,-1 l 10.5,0 0,-40 0,-40 -10,0 c -6,0 -10.0000005,-0.4 -10.0000005,-1 0,-0.6 4.0000005,-1 10.0000005,-1 l 10,0 0,-39.5 0,-39.5 -9,0 c -5.333333,0 -9.0000005,-0.40741 -9.0000005,-1 0,-0.59259 3.6666675,-1 9.0000005,-1 l 9,0 0,-40.5 0,-40.5 -10,0 c -6,0 -10.0000005,-0.4 -10.0000005,-1 0,-0.6 4.0000005,-1 10.0000005,-1 l 10,0 0,-39 0,-39 -10,0 c -6,0 -10.0000005,-0.4 -10.0000005,-1 0,-0.6 4.0000005,-1 10.0000005,-1 l 10,0 0,-28.5 c 0,-27.83333 -0.04678,-28.5 -2,-28.5 -2.521377,0 -2.527274,0.0826 0.678057,-9.49659 l 2.678056,-8.00341 1.795523,6 c 3.207462,10.7182 3.270538,11.5 0.927819,11.5 -2.057298,0 -2.079455,0.30368 -2.079455,28.5 l 0,28.5 62.000003,0 c 34.100003,0 62.008993,-0.3375 62.019983,-0.75 0.011,-0.4125 -3.91666,-11.83314 -8.7281,-25.37919 -7.36922,-20.74722 -8.94353,-24.37241 -9.98817,-23 -1.04233,1.36936 -1.24518,0.87163 -1.27191,-3.12081 -0.0175,-2.6125 -0.30259,-4.75 -0.63355,-4.75 -0.33097,0 -22.44065,12.43274 -49.132633,27.6283 -26.691986,15.19557 -49.483697,27.84702 -50.648252,28.11434 -1.164554,0.26731 20.945129,-12.66602 49.132632,-28.74074 45.195553,-25.77405 51.250003,-29.50883 51.250003,-31.61434 0,-1.31316 0.45,-2.38756 1,-2.38756 0.55,0 1.01045,1.4625 1.02322,3.25 0.0215,3.00845 18.09343,54.90842 20.5886,59.12746 1.02233,1.72864 5.00299,-0.33222 50.22036,-26 l 49.11002,-27.87746 0.0289,-4.25 c 0.0211,-3.09827 0.43539,-4.25 1.5289,-4.25 0.99331,0 1.5,0.99344 1.5,2.94098 0,1.61754 0.41399,3.19685 0.91997,3.50956 0.50599,0.31272 4.84844,12.37678 9.64989,26.80902 4.80146,14.43224 9.11247,26.39044 9.58003,26.57377 0.46756,0.18334 0.85011,1.19584 0.85011,2.25 0,1.05417 0.5625,1.89753 1.25,1.87415 0.6875,-0.0234 22.625,-12.09794 48.75,-26.83233 l 47.5,-26.78981 0.5,-6.41767 c 0.59276,-7.60828 2.36771,-8.51461 2.81421,-1.437 0.17282,2.73937 0.64669,5.21437 1.05306,5.5 0.40637,0.28563 4.31497,10.64433 8.68579,23.01933 l 7.94694,22.5 0.5,-7 c 0.73087,-10.23216 2.17571,-6.2794 1.80879,4.94846 -0.19528,5.97584 0.098,9.85646 0.79799,10.55715 0.8095,0.81036 14.31832,-6.32668 50.29397,-26.57153 27.05295,-15.22371 49.41337,-27.45329 49.68981,-27.17685 0.27645,0.27644 -20.55584,12.33001 -46.29397,26.78569 -25.73812,14.45569 -47.68422,26.88473 -48.7691,27.62008 -1.66412,1.12797 3.56152,1.337 33.42432,1.337 l 35.39682,0 -2.34863,-2.5 c -1.29175,-1.375 -1.93269,-2.48681 -1.42431,-2.47069 1.21281,0.0385 7.42431,5.70212 7.42431,6.7695 0,1.33689 -5.48447,6.20119 -6.99181,6.20119 -0.84498,0 -0.26505,-1.16623 1.49181,-3 l 2.87418,-3 -36.1053,0 c -19.85792,0 -36.81711,0.27315 -37.68709,0.60699 -1.14053,0.43766 -1.58179,1.9555 -1.58179,5.44098 0,2.6587 -0.45,5.11211 -1,5.45203 -0.62464,0.38605 -1,-1.65628 -1,-5.44098 l 0,-6.05902 -8.95794,0 -8.95793,0 -0.29207,7.75 c -0.16224,4.30529 -0.73654,7.75 -1.29206,7.75 -0.55552,0 -1.12982,-3.44471 -1.29206,-7.75 l -0.29207,-7.75 -48.95793,0 -48.95794,0 0,5.05902 c 0,3.11803 -0.38367,4.82189 -1,4.44098 -0.55,-0.33992 -1,-2.61648 -1,-5.05902 l 0,-4.44098 -60.44774,0 -60.44774,0 -0.30226,5.25 c -0.16624,2.8875 -0.75226,5.25 -1.30226,5.25 -0.55,0 -1.13602,-2.3625 -1.30226,-5.25 l -0.30226,-5.25 -61.947743,0 -61.947743,0 0,15.5 c 0,13.11111 0.231183,15.5 1.5,15.5 1.29078,0 1.5,3.27778 1.5,23.5 l 0,23.5 50.500003,0 50.500003,0 0,-4.05902 c 0,-2.45136 0.39607,-3.81423 1,-3.44098 0.55,0.33992 1,2.16648 1,4.05902 l 0,3.44098 9,0 9,0 0,-6.65499 c 0,-6.3839 -0.0745,-6.58757 -1.82874,-5 -3.2588,2.94918 -4.70603,1.82261 -1.69543,-1.31978 l 2.85001,-2.97477 -56.845123,-0.0336 -56.845112,-0.0336 2.352804,2.50445 c 3.756573,3.99869 1.320567,4.28798 -2.652422,0.31499 l -3.597339,-3.59734 3.380673,-3.07335 c 3.311345,-3.01036 4.880673,-3.80157 4.880673,-2.46075 0,0.36919 -0.744744,1.49419 -1.654988,2.5 -1.601078,1.76917 -0.135251,1.82874 45.000001,1.82874 l 46.654993,0 0,-6.55902 c 0,-4.11803 0.37216,-6.32901 1,-5.94098 0.55,0.33992 1,3.29148 1,6.55902 l 0,5.94098 8.17431,0 8.17432,0 -2.34863,-2.5 c -1.29175,-1.375 -1.88993,-2.5 -1.3293,-2.5 0.56063,0 1.87657,0.94839 2.92431,2.10754 1.88147,2.08153 1.91116,1.85622 2.40499,-18.25 0.30877,-12.57169 0.88246,-20.35754 1.5,-20.35754 0.55,0 1.13602,2.3625 1.30226,5.25 0.21743,3.77659 0.70857,5.25 1.75,5.25 1.22426,0 1.44774,3.78195 1.44774,24.5 l 0,24.5 47.93963,0 47.93964,0 0.31036,-3.75 c 0.17071,-2.0625 0.76037,-3.75 1.31037,-3.75 0.55,0 1.13966,1.6875 1.31037,3.75 l 0.31036,3.75 9.43964,0 9.43963,0 0,-8 0,-8 -9.81291,0 c -9.59786,0 -9.8759,0.0658 -12.68709,3 -3.60229,3.75998 -5.38471,3.93961 -2.48068,0.25 l 2.16448,-2.75 -17.5919,-0.27307 c -10.59791,-0.16451 -17.5919,-0.66147 -17.5919,-1.25 0,-0.59759 6.60102,-0.97693 17,-0.97693 9.35,0 17,-0.30207 17,-0.67126 0,-0.36919 -0.74474,-1.49419 -1.65499,-2.5 -0.91024,-1.00581 -1.19034,-1.82874 -0.62244,-1.82874 0.5679,0 1.65014,0.74984 2.40499,1.66631 1.20763,1.4662 1.43248,1.01588 1.87244,-3.75 0.68029,-7.36935 2.43183,-6.84741 2.79772,0.83369 l 0.29771,6.25 9.45229,0 9.45228,0 0,-21.44098 c 0,-13.2153 0.38364,-21.67809 1,-22.05902 0.62784,-0.38803 1,1.82295 1,5.94098 0,5.89235 0.20328,6.55902 2,6.55902 1.91763,0 2,0.66667 2,16.18709 l 0,16.18709 2.98957,-2.86419 c 3.28412,-3.14638 5.42815,-2.73404 2.51598,0.48388 -1.81067,2.00077 -1.76966,2.00613 15.33946,2.00613 10.76999,0 17.15499,0.37219 17.15499,1 0,0.62895 -6.5581,1 -17.67431,1 l -17.67432,0 2.34493,2.49606 c 3.34356,3.55906 1.58159,4.43178 -2.00673,0.99395 l -2.98957,-2.86419 0,7.18709 0,7.18709 46.94774,0 46.94774,0 0.30226,-5.25 c 0.16624,-2.8875 0.75226,-5.25 1.30226,-5.25 0.55,0 1.13602,2.3625 1.30226,5.25 l 0.30226,5.25 8.94774,0 8.94774,0 0,-29.55902 c 0,-19.45136 0.34195,-29.34768 1,-28.94098 0.55,0.33992 1,2.61648 1,5.05902 0,3.77431 0.30023,4.44098 2,4.44098 1.94558,0 2,0.66667 2,24.5 l 0,24.5 35.17431,0 35.17432,0 -2.34863,-2.5 c -1.29175,-1.375 -1.93269,-2.48681 -1.42431,-2.47069 1.21281,0.0385 7.42431,5.70212 7.42431,6.7695 0,1.33689 -5.48447,6.20119 -6.99181,6.20119 -0.84498,0 -0.26505,-1.16623 1.49181,-3 l 2.87418,-3 -47.68709,0 c -40.85382,0 -47.68709,0.20648 -47.68709,1.44098 0,2.39589 -2.09524,2.91084 -2.68394,0.65964 l -0.54932,-2.10062 -59.31695,0 -59.31695,0 -0.31642,2.75 c -0.17403,1.5125 -0.76642,2.75 -1.31642,2.75 -0.55,0 -1.14239,-1.2375 -1.31642,-2.75 l -0.31642,-2.75 -59.93358,0 -59.93358,0 0,2.44098 c 0,1.34254 -0.45,2.7191 -1,3.05902 -0.58342,0.36058 -1,-0.65628 -1,-2.44098 l 0,-3.05902 -52.000003,0 -52.000003,0 0,40.625 0,40.625 3.222515,-0.6445 c 4.059538,-0.81191 9.281099,-5.76803 12.227058,-11.6055 1.249043,-2.475 4.207697,-10.35 6.574787,-17.5 7.486519,-22.61368 10.483316,-27.24482 20.477351,-31.64489 11.624162,-5.11777 12.897952,-5.37583 19.746862,-4.00056 11.751063,2.35961 17.331683,8.64664 22.320143,25.14545 7.34852,24.30451 12.01898,35.75307 15.89927,38.97343 1.78106,1.47814 5.13033,0.51574 5.98857,-1.7208 0.35272,-0.91917 1.05575,-10.68954 1.56229,-21.71193 0.81659,-17.76942 1.82351,-27.86685 3.52568,-35.35562 0.38638,-1.69989 1.11098,-2.23125 2.72736,-2 3.09393,0.44264 3.62827,4.53069 3.63564,27.81492 0.007,20.98451 0.37264,24.73064 2.90658,29.75 2.00536,3.97232 2.95375,4.11305 3.36948,0.5 0.43709,-3.7987 2.24803,-3.45902 2.62927,0.49318 0.30825,3.19552 0.35321,3.22231 3.05954,1.82281 4.54734,-2.35152 11.29363,-9.74993 13.73803,-15.06599 1.26448,-2.75 3.88557,-10.51772 5.82464,-17.26161 1.93907,-6.74388 4.20944,-13.58403 5.04526,-15.20034 0.83582,-1.6163 1.53186,-3.52358 1.54674,-4.23839 0.0428,-2.05528 6.58567,-8.56263 10.71324,-10.65505 2.06783,-1.04827 6.34793,-2.71705 9.51133,-3.70841 5.13107,-1.608 6.47972,-1.66213 12.5,-0.50176 12.00337,2.31357 16.88434,9.26181 26.16886,37.25227 8.83722,26.64202 15.12335,35.08396 17.95658,24.11479 0.54004,-2.09083 1.26331,-11.6765 1.60726,-21.3015 0.57262,-16.02374 1.83734,-29.74432 3.16243,-34.3083 0.33923,-1.16839 1.28607,-1.69919 2.67567,-1.5 3.03025,0.43439 3.58367,4.6658 3.57164,27.3083 -0.0106,19.94296 0.59591,26.82276 2.62629,29.79077 1.14675,1.6763 1.27538,1.64434 2.01234,-0.5 0.69678,-2.02743 0.83261,-1.87146 1.18155,1.35679 0.60329,5.58138 3.21642,5.57973 8.89421,-0.006 5.68725,-5.59464 8.2066,-10.85221 12.76645,-26.64195 5.85836,-20.28616 9.01245,-25.17805 19.1268,-29.665 10.78557,-4.78471 13.80235,-5.3356 21.2988,-3.8893 5.05463,0.97519 7.51966,2.06123 10.04003,4.42342 4.18492,3.92228 8.28829,11.91536 11.10453,21.63088 5.02114,17.322 7.50324,23.85092 11.40511,30 9.14946,14.41892 11.04832,11.82667 12.08646,-16.5 0.60278,-16.44733 1.8706,-30.19461 3.21012,-34.8083 0.33923,-1.16839 1.28607,-1.69919 2.67567,-1.5 3.02289,0.43334 3.58891,4.69158 3.56349,26.8083 -0.0256,22.29405 0.66507,28.68933 3.24773,30.07153 1.02649,0.54936 1.86635,1.66914 1.86635,2.4884 0,2.99268 5.29826,3.44007 40.73941,3.44007 l 35.60922,0 -2.34863,-2.49961 c -1.29175,-1.375 -1.93269,-2.48681 -1.42431,-2.47069 1.21281,0.0385 7.42431,5.70212 7.42431,6.7695 0,1.33689 -5.48447,6.20119 -6.99181,6.20119 -0.84498,0 -0.26505,-1.16623 1.49181,-3 l 2.87418,-3 -38.68709,0 -38.68709,0 0,3.44098 c 0,1.89254 -0.45,3.7191 -1,4.05902 -0.60393,0.37325 -1,-0.98962 -1,-3.44098 l 0,-4.05902 -8.94774,0 -8.94774,0 -0.30226,5.25 c -0.16624,2.8875 -0.75226,5.25 -1.30226,5.25 -0.55,0 -1.13602,-2.3625 -1.30226,-5.25 l -0.30226,-5.25 -48.94774,0 -48.94774,0 0,2.55902 c 0,1.45136 -0.43284,2.2915 -1,1.94098 -0.55,-0.33992 -1,-1.49148 -1,-2.55902 0,-1.78441 -0.76247,-1.94098 -9.45228,-1.94098 l -9.45229,0 -0.29771,6.25 c -0.16375,3.4375 -0.74772,6.25 -1.29772,6.25 -0.55,0 -1.13397,-2.8125 -1.29772,-6.25 l -0.29771,-6.25 -49.38893,0 -49.38892,0 -0.31336,3.25 c -0.17235,1.7875 -0.76336,3.25 -1.31336,3.25 -0.55,0 -1.14101,-1.4625 -1.31336,-3.25 l -0.31336,-3.25 -8.93664,0 -8.93664,0 0,5.94098 c 0,3.26754 -0.45,6.2191 -1,6.55902 -0.62784,0.38803 -1,-1.82295 -1,-5.94098 l 0,-6.55902 -50.418223,0 c -27.730012,0 -51.130012,0.27314 -51.999996,0.60699 -1.387096,0.53228 -1.581787,3.85552 -1.581787,27 l 0,26.39301 11.432612,0 c 10.994868,0 11.457748,-0.0861 12.089076,-2.25 1.018716,-3.4916 8.474407,-18.02951 10.323419,-20.12971 4.792205,-5.44322 15.139624,-8.91294 26.975216,-9.0454 13.328833,-0.14917 29.322883,9.12861 32.077053,18.60716 0.69007,2.37487 2.1606,6.23045 3.26786,8.56795 1.68895,3.56553 2.48197,4.25 4.92398,4.25 2.86531,0 2.91079,-0.0869 2.91079,-5.55902 0,-3.45136 0.37914,-5.32469 1,-4.94098 0.55,0.33992 1,2.84148 1,5.55902 l 0,4.94098 20.25,-0.0181 20.25,-0.0181 4.28777,-8.7319 c 6.14604,-12.51619 10.84068,-17.17119 21.96064,-21.77522 6.75401,-2.79638 21.94597,-1.5435 30.54424,2.51899 3.57615,1.68964 7.11077,3.8 7.85472,4.68968 0.74394,0.88967 3.82763,6.35908 6.85263,12.15422 3.025,5.79515 6.03797,10.71081 6.69548,10.9237 0.8024,0.25979 1.29561,-1.3606 1.5,-4.9281 0.39245,-6.84997 2.21354,-6.89549 2.60678,-0.0652 l 0.30226,5.25 22.90095,0 22.90094,0 1.94401,-4.39476 c 1.06921,-2.41711 2.5291,-6.12961 3.2442,-8.25 1.52781,-4.53014 8.47016,-12.19046 13.13073,-14.48868 9.8113,-4.83815 11.44939,-5.18957 21.20366,-4.54884 15.81123,1.0386 25.5554,7.01044 31.19275,19.11688 2.01805,4.33384 2.36011,4.66823 2.36847,2.3154 0.006,-1.73314 0.54678,-2.75 1.46205,-2.75 1.08305,0 1.52798,1.58905 1.75,6.25 l 0.29772,6.25 12.25,0.28078 12.25,0.28078 0,-2.58044 c 0,-4.92429 4.98137,-11.48109 8.72251,-11.48109 1.96756,0 1.51235,2.80394 -0.64242,3.95714 -2.55331,1.36649 -4.4331,7.3476 -3.63923,11.5793 0.55577,2.96252 3.63355,6.46356 5.68215,6.46356 0.3729,0 0.83527,-4.0034 1.02749,-8.89646 0.27551,-7.01307 0.75279,-9.34177 2.25449,-11 3.25807,-3.59766 8.75656,-2.62561 11.132,1.96798 1.76747,3.41791 1.91376,11.84507 0.26832,15.45642 -1.21522,2.66713 -5.447,5.47206 -8.25565,5.47206 -1.19293,0 -1.54966,1.15101 -1.54966,5 0,4.33333 -0.26667,5 -2,5 -1.73333,0 -2,-0.66667 -2,-5 0,-4.21283 -0.29364,-5 -1.86514,-5 -2.50273,0 -7.07066,-3.70094 -8.18479,-6.63132 -0.87213,-2.29388 -1.24871,-2.36868 -11.92532,-2.36868 -6.06361,0 -11.02475,0.19275 -11.02475,0.42833 0,1.59712 7.69743,12.8468 10.99039,16.06229 l 4.00961,3.91528 0,-8.40295 c 0,-6.1737 0.29545,-8.1075 1.11366,-7.28929 0.69554,0.69554 0.97017,3.95512 0.73148,8.68184 -0.30544,6.04864 -0.0773,7.7137 1.13634,8.29294 0.83519,0.39862 17.4833,0.89274 36.9958,1.09804 l 35.47728,0.37329 -1.88227,-2.07989 c -2.722,-3.00777 0.1613,-2.69124 3.67771,0.40376 3.42069,3.01074 3.41674,3.5034 -0.0547,6.82927 -3.9174,3.75309 -6.32319,3.47379 -2.6953,-0.31291 l 2.87418,-3 -83.18709,0 c -73.27741,0 -83.18709,0.17869 -83.18709,1.5 0,0.825 -0.675,1.5 -1.5,1.5 -0.825,0 -1.5,-0.675 -1.5,-1.5 0,-1.25926 -2.16667,-1.5 -13.5,-1.5 l -13.5,0 0,7.55902 c 0,4.7847 -0.36702,7.33218 -1,6.94098 -0.55,-0.33992 -1,-3.74148 -1,-7.55902 l 0,-6.94098 -49,0 c -48.33333,0 -49,0.0272 -49,2 0,1.11111 -0.66667,2 -1.5,2 -0.83333,0 -1.5,-0.88889 -1.5,-2 0,-1.86977 -0.66745,-2.00015 -10.25,-2.00235 l -10.25,-0.002 0.32615,8.00235 c 0.28146,6.90559 0.0998,8.002 -1.32615,8.002 -1.42591,0 -1.60761,-1.09641 -1.32615,-8.00235 l 0.32615,-8.00235 -49.25,0.002 c -46.225074,0.002 -49.251959,0.10983 -49.281809,1.75235 -0.03029,1.66667 -0.09506,1.66667 -1.360243,0 -1.131336,-1.49 -3.055452,-1.74965 -12.968197,-1.74965 l -11.639757,0 0,40 0,40 11.5,0 11.5,0 0,-24 c 0,-23.33333 0.05556,-24 2,-24 1.944444,0 2,0.66667 2,24 l 0,24 48.450106,0 48.45009,0 0.29991,-5.75 c 0.16494,-3.1625 0.7499,-5.75 1.2999,-5.75 0.55,0 1.13496,2.5875 1.2999,5.75 l 0.29991,5.75 9.95009,0 9.9501,0 0,-24 c 0,-23.33333 0.0556,-24 2,-24 1.94444,0 2,0.66667 2,24 l 0,24 48.5,0 48.5,0 0,-5.94098 c 0,-3.26754 0.45,-6.2191 1,-6.55902 0.62784,-0.38803 1,1.82295 1,5.94098 l 0,6.55902 13,0 13,0 0,-24 c 0,-23.33333 0.0556,-24 2,-24 1.94444,0 2,0.66667 2,24 l 0,24 44.5,0 44.5,0 0,-5.05902 c 0,-3.11803 0.38367,-4.82189 1,-4.44098 0.55,0.33992 1,2.61648 1,5.05902 l 0,4.44098 36.67431,0 36.67432,0 -2.34863,-2.5 c -1.29175,-1.375 -1.93269,-2.48681 -1.42431,-2.47069 1.21281,0.0385 7.42431,5.70212 7.42431,6.7695 0,1.33689 -5.48447,6.20119 -6.99181,6.20119 -0.84498,0 -0.26505,-1.16623 1.49181,-3 l 2.87418,-3 -37.07046,0 -37.07046,0 -0.74358,2.25 -0.74358,2.25 -0.4426,-2.25 -0.4426,-2.25 -44.38055,0 -44.38054,0 -0.29991,5.75 c -0.38785,7.43617 -2.21108,7.45037 -2.5992,0.0203 l -0.2993,-5.72975 -63.40285,-0.0254 -63.40285,-0.0254 -0.29785,6.2551 c -0.38562,8.09825 -2.20988,8.10183 -2.59557,0.005 l -0.29771,-6.25 -9.75229,0 c -5.68927,0 -10.2052,0.45292 -10.83941,1.08713 -0.78285,0.78285 -1.2752,0.78285 -1.75902,0 -0.46901,-0.75873 -15.4492,-1.08698 -49.61287,-1.08698 l -48.940986,0 0,6.05902 c 0,3.7847 -0.375361,5.82703 -1,5.44098 -0.55,-0.33992 -1,-3.06648 -1,-6.05902 l 0,-5.44098 -12,0 -12,0 0,20.5 0,20.5 13,0 13,0 0,18.5 0,18.5 48.000006,0 48,0 0,-15.40638 0,-15.40638 -2.25,0.55453 -2.25,0.55454 2.25,-2.46261 c 1.2375,-1.35443 2.25,-2.7711 2.25,-3.14815 0,-0.37705 -9.225,-0.68555 -20.5,-0.68555 -13,0 -20.5,-0.36585 -20.5,-1 0,-0.63442 7.5581,-1 20.67431,-1 l 20.67432,0 -2.34863,-2.5 c -1.29175,-1.375 -1.88993,-2.5 -1.3293,-2.5 0.56063,0 1.87657,0.95168 2.92431,2.11485 l 1.90499,2.11484 0.5,-3.36484 c 0.7348,-4.94499 2.45306,-4.09642 2.80479,1.38515 l 0.30479,4.75 10.36188,0 c 5.69903,0 10.51619,-0.3375 10.7048,-0.75 0.18861,-0.4125 1.79641,-2.06719 3.5729,-3.6771 3.50888,-3.17985 5.71075,-2.84357 2.75639,0.42097 -1.81067,2.00077 -1.76966,2.00613 15.33946,2.00613 10.76999,0 17.15499,0.37219 17.15499,1 0,0.62895 -6.5581,1 -17.67431,1 l -17.67432,0 2.34493,2.49606 c 3.05463,3.2515 1.75126,4.55487 -1.50024,1.50024 l -2.49606,-2.34493 0,17.17432 0,17.17431 49,0 49,0 0,-23.44098 c 0,-14.54864 0.37935,-23.67544 1,-24.05902 0.62784,-0.38803 1,1.82295 1,5.94098 l 0,6.55902 13.44098,0 c 8.02579,0 13.69405,-0.40946 14.0691,-1.01631 1.83059,-2.96195 2.48992,1.82441 2.48992,18.07533 l 0,17.94098 82.17431,0 82.17432,0 -2.34863,-2.5 c -1.29175,-1.375 -1.93269,-2.48681 -1.42431,-2.47069 1.21281,0.0385 7.42431,5.70212 7.42431,6.7695 0,1.33689 -5.48447,6.20119 -6.99181,6.20119 -0.84498,0 -0.26505,-1.16623 1.49181,-3 l 2.87418,-3 -37.18709,0 -37.18709,0 0,6.94098 c 0,3.81754 -0.45,7.2191 -1,7.55902 -0.63298,0.3912 -1,-2.15628 -1,-6.94098 l 0,-7.55902 -43.95619,0 -43.95619,0 -0.29381,7.25 c -0.1616,3.9875 -0.74381,7.25 -1.29381,7.25 -0.55,0 -1.13221,-3.2625 -1.29381,-7.25 l -0.29381,-7.25 -13.95619,0 -13.95619,0 0,6.05902 c 0,3.7847 -0.37536,5.82703 -1,5.44098 -0.55,-0.33992 -1,-3.06969 -1,-6.06615 l 0,-5.44812 -60.45288,0.0301 -60.45288,0.0301 -0.29712,6.22707 c -0.38534,8.07603 -2.20981,8.05991 -2.59484,-0.0229 l -0.29771,-6.2501 -61.952293,0 -61.952283,0 0,21.5 0,21.5 40.5,0 40.500006,0 0,19 0,19 21.75,2.6e-4 21.75,2.6e-4 0,-19.25026 0,-19.25026 41.25,-0.26109 41.25,-0.2611 0,19.5111 0,19.51109 20.75,2.1e-4 20.75,2.1e-4 0,-19.54386 0,-19.54387 40.25,0.065 40.25,0.065 0,-5.19562 0,-5.19563 -2.31445,2.17432 c -3.59085,3.37336 -5.51288,2.64723 -2.18555,-0.82576 l 2.87418,-3 -22.8614,0 -22.86141,0 2.34493,2.49606 c 2.72224,2.89769 1.94834,4.6688 -0.90984,2.08219 -1.84675,-1.67129 -1.93935,-1.64709 -2.25613,0.58946 -0.69383,4.89872 -2.34331,2.03281 -2.62946,-4.56858 -0.3039,-7.01107 1.26031,-11.37557 2.44851,-6.83188 0.61888,2.3666 1.82698,2.88904 2.85062,1.23275 0.33992,-0.55 1.11122,-1 1.714,-1 0.60279,0 0.28149,0.9 -0.714,2 -1.8046,1.99406 -1.74663,2 19.5,2 21.24663,0 21.3046,-0.006 19.5,-2 -1.48419,-1.64001 -1.53998,-2 -0.30998,-2 0.825,0 2.31727,0.90307 3.31616,2.00683 0.99888,1.10375 2.53113,1.89125 3.40499,1.75 1.42669,-0.23062 1.54891,2.47298 1.19769,26.49317 l -0.39114,26.75 19.14114,0 19.14114,0 0,-7.55902 c 0,-4.7847 0.36702,-7.33218 1,-6.94098 0.55,0.33992 1,3.74148 1,7.55902 l 0,6.94098 38.17431,0 38.17432,0 -2.34863,-2.5 c -1.29175,-1.375 -1.93269,-2.48681 -1.42431,-2.47069 1.21281,0.0385 7.42431,5.70212 7.42431,6.7695 0,1.33689 -5.48447,6.20119 -6.99181,6.20119 -0.84498,0 -0.26505,-1.16623 1.49181,-3 l 2.87418,-3 -224.18709,0 -224.187096,0 0,4 c 0,2.2 -0.45,4 -1,4 -0.55,0 -1,-1.8 -1,-4 z m 8.823413,-252.95245 c 4.786309,-1.28882 10.168411,-7.41575 13.14265,-14.96145 1.118665,-2.83808 2.033937,-5.36848 2.033937,-5.62312 0,-0.25464 -4.95,-0.46298 -11,-0.46298 l -11,0 0,11.60699 c 0,9.68202 0.238396,11.51551 1.437454,11.05538 0.7906,-0.30338 3.214281,-1.03005 5.385959,-1.61482 z m 17.176587,-2.98853 c 0,-2.71754 0.45,-5.2191 1,-5.55902 0.620859,-0.38371 1,1.48962 1,4.94098 l 0,5.55902 39.000003,0 39.000003,0 0,-5.42833 c 0,-4.45141 -0.65092,-6.52103 -3.61688,-11.5 l -3.61687,-6.07167 -35.383133,0 -35.383123,0 -0.0318,2.75 c -0.02802,2.42313 -0.181538,2.55316 -1.29153,1.09397 -1.095151,-1.43968 -1.570259,-0.85178 -3.636676,4.5 -3.00137,7.77321 -5.730482,11.5636 -9.539991,13.24983 -2.824633,1.25029 -2.54697,1.3302 4.75,1.36706 l 7.749997,0.0391 0,-4.94098 z m 86.500006,0.94098 c -2.14824,-2.2 -4.03957,-4 -4.20295,-4 -0.16338,0 -0.29705,1.8 -0.29705,4 l 0,4 4.20295,0 4.20295,0 -3.9059,-4 z m 18.86419,2.47513 c 5.87929,-0.92597 12.96514,-8.03287 15.50359,-15.54963 l 2.00107,-5.9255 -20.07418,0 c -17.94553,0 -20.21505,0.18557 -21.40262,1.75 -1.26518,1.66667 -1.32996,1.66667 -1.36025,0 -0.0199,-1.096 -0.8097,-1.75 -2.11336,-1.75 -2.07511,0 -2.07452,0.0116 0.18921,3.75 4.61239,7.61698 5.48193,8.74998 9.75343,12.70848 5.55607,5.14895 8.02421,6.47968 11.13892,6.00569 1.375,-0.20924 4.23888,-0.65431 6.36419,-0.98904 z m -4.88288,-3.66324 c -0.9304,-2.42459 -0.0843,-14.31189 1.01869,-14.31189 1.34116,0 1.87239,13.52761 0.58191,14.81809 -0.68846,0.68846 -1.20483,0.52516 -1.6006,-0.5062 z m 22.7139,0.43811 c 0.16763,-2.6125 0.75479,-4.75 1.30479,-4.75 0.55,0 1.13716,2.1375 1.30479,4.75 l 0.30479,4.75 37.83591,0 37.83591,0 0.436,-7.75 c 0.36598,-6.50542 0.1025,-8.35098 -1.6407,-11.4923 l -2.0767,-3.7423 -36.18664,-0.008 -36.18664,-0.008 -0.31336,3.25 c -0.18638,1.93303 -0.86863,3.25 -1.68365,3.25 -0.75365,0 -2.10365,1.86763 -3,4.1503 -1.99504,5.08065 -4.539,7.98151 -9.12866,10.40934 l -3.50105,1.85197 7.19521,0.0442 7.19521,0.0442 0.30479,-4.75 z m 93.63412,3.92971 c -0.91887,-0.37384 -3.95637,-2.84796 -6.75,-5.49804 l -5.07933,-4.81833 0,5.56833 0,5.56833 6.75,-0.0703 c 3.7125,-0.0387 5.9982,-0.37615 5.07933,-0.75 z m 36.36841,-4.42971 c 0.16624,-2.8875 0.75226,-5.25 1.30226,-5.25 0.55,0 1.13602,2.3625 1.30226,5.25 l 0.30226,5.25 34.19774,0.002 34.19774,0.002 0,-7.25167 c 0,-4.16777 0.42527,-7.25166 1,-7.25166 0.57473,0 1,3.08389 1,7.25166 l 0,7.25167 9.5,-0.065 c 6.09758,-0.0418 8.7837,-0.36562 7.5,-0.90427 -3.1561,-1.32432 -8.87287,-7.9373 -13.16976,-15.23435 l -3.94552,-6.70034 -35.12365,-0.0734 -35.12365,-0.0733 -0.31871,2.77369 c -0.41689,3.62812 -2.15784,3.45891 -2.91162,-0.28301 -0.67645,-3.35804 -0.97339,-2.83288 -3.42459,6.0567 -1.82129,6.60511 -4.18733,9.73688 -9.4825,12.55132 l -3.5,1.86029 8.19774,0.0442 8.19774,0.0442 0.30226,-5.25 z m -16.91562,2.86638 c 5.44631,-2.34178 10.3907,-8.44381 12.04603,-14.86638 l 1.48199,-5.75 -22.33768,0 c -21.51541,0 -22.36123,0.0742 -22.97727,2.01515 -0.40063,1.26227 0.19437,3.36452 1.59257,5.62685 2.36234,3.82234 9.68674,11.03597 13.27332,13.07256 2.91379,1.65457 12.98052,1.59616 16.92104,-0.0982 z m -11.61545,-4.28305 c -1.06408,-1.06408 -0.76998,-14.15144 0.33333,-14.83333 0.63507,-0.39249 1,2.32295 1,7.44098 0,8.08207 -0.0983,8.62734 -1.33333,7.39235 z m 146.87878,-12.78788 c 4.60341,-4.6034 2.59776,-18.89543 -2.23688,-15.93978 -1.47867,0.90398 -1.86127,2.68249 -2.0975,9.75 -0.31532,9.43356 0.26372,10.26045 4.33438,6.18978 z m -300.31079,-6.79545 c -0.55563,-0.6875 -1.83117,-3.87958 -2.83454,-7.0935 -1.45275,-4.65335 -2.90135,-6.82786 -7.11246,-10.67657 -2.90848,-2.65819 -7.87554,-6.10361 -11.0379,-7.6565 -4.861893,-2.38744 -6.927483,-2.81022 -13.376513,-2.7379 -16.381761,0.18372 -23.327557,4.53846 -32.363136,20.29042 -1.380564,2.40678 -2.510117,5.44428 -2.510117,6.75 l 0,2.37405 35.122443,0 c 27.970083,0 34.916733,-0.25455 34.112223,-1.25 z m 125.76534,0.88328 c 0,-0.2017 -2.20843,-4.8142 -4.90762,-10.25 -4.59996,-9.26371 -5.29566,-10.12923 -11.09773,-13.80665 -6.69001,-4.2402 -11.49512,-5.42295 -22.41379,-5.51702 -5.8889,-0.0507 -7.70279,0.38265 -12.18206,2.91059 -8.75234,4.93952 -18.20949,16.33844 -19.88526,23.96815 l -0.67245,3.06165 35.57945,0 c 19.56871,0 35.57946,-0.16502 35.57946,-0.36672 z m 126.99921,-0.88328 c -0.002,-2.47571 -5.8349,-13.33403 -9.26709,-17.25 -1.92821,-2.2 -5.96553,-5.47729 -8.97181,-7.28287 -4.90122,-2.94367 -6.50358,-3.34608 -15.50834,-3.89467 l -10.04236,-0.61181 -6.35481,3.57272 c -11.11742,6.25031 -19.427,17.27251 -18.13136,24.05023 l 0.50971,2.6664 33.88343,0 c 26.44049,0 33.88325,-0.27458 33.88263,-1.25 z m -251.01733,-56 c -0.01,-0.6875 -1.32629,-3.62283 -2.92518,-6.52296 -2.83384,-5.14013 -6.71327,-16.04445 -11.10966,-31.22704 -4.12459,-14.24396 -9.11492,-20.61895 -18.378543,-23.47799 -6.89315,-2.12743 -9.35206,-1.93271 -17.508267,1.38648 -5.343337,2.17449 -8.208596,4.10416 -11.353613,7.64635 -5.746081,6.47174 -5.939356,6.87182 -11.809067,24.44516 -6.007572,17.98608 -8.796679,23.98889 -12.49927,26.90135 l -2.668003,2.09865 44.13486,0 c 34.650883,0 44.130973,-0.26861 44.116743,-1.25 z m 21.67979,-1.5 c -2.12839,-4.21179 -2.80781,-12.09886 -2.70748,-31.43023 0.0907,-17.46926 -0.5323,-25.81977 -1.92621,-25.81977 -1.30148,0 -3.13046,16.20866 -4.00726,35.51283 -0.47496,10.45706 -1.17271,20.24456 -1.55055,21.75 l -0.68699,2.73717 6.13409,0 6.13409,0 -1.38969,-2.75 z m 102.90791,-6 c -2.38076,-4.8125 -6.65432,-15.725 -9.4968,-24.25 -6.16068,-18.47676 -8.10171,-22.27718 -14.21806,-27.83817 -6.37462,-5.79581 -13.29225,-7.33482 -21.43363,-4.76848 -7.17945,2.26313 -10.13747,4.10984 -14.5868,9.10665 -4.88914,5.49074 -6.34505,8.64439 -10.26653,22.23839 -6.44829,22.35334 -9.55164,28.08649 -17.46809,32.27065 -3.58406,1.89432 -3.39285,1.90276 44.09944,1.94676 l 47.69912,0.0442 -4.32865,-8.75 z m 25.81995,7.98469 c -2.01142,-1.33076 -4.10607,-6.64508 -4.82232,-12.23469 -0.38763,-3.025 -0.66349,-13.4561 -0.61302,-23.18023 0.0909,-17.5249 -0.53229,-25.81977 -1.93998,-25.81977 -1.20624,0 -2.89479,16.41573 -3.54874,34.5 -0.54665,15.1169 -1.28343,21.25607 -3.12784,26.06255 -0.45109,1.17552 0.8801,1.43466 7.30538,1.42214 4.32135,-0.008 7.35728,-0.34592 6.74652,-0.75 z m 97.9858,-2.48469 c -0.92182,-1.7875 -2.66287,-4.825 -3.869,-6.75 -2.09115,-3.3375 -5.26612,-12.32002 -10.9573,-31 -3.20335,-10.51423 -4.94704,-13.66718 -10.09837,-18.25991 -4.47244,-3.98746 -11.59173,-6.31019 -16.72995,-5.45828 -7.42641,1.23129 -15.02815,4.98925 -19.4074,9.59415 -5.81602,6.11569 -6.75299,8.02202 -10.74555,21.86243 -6.24567,21.65095 -9.04966,27.1449 -16.02514,31.39869 -2.9917,1.82439 -2.26824,1.85551 43.23306,1.85918 l 46.27568,0.004 -1.67603,-3.25 z m 22.62467,2.70034 c 0,-0.30231 -0.6138,-1.76481 -1.36401,-3.25 -2.10232,-4.16198 -2.7818,-12.11269 -2.6818,-31.38057 0.0909,-17.5249 -0.53229,-25.81977 -1.93998,-25.81977 -1.2104,0 -2.90053,16.42318 -3.60191,35 -0.3634,9.625 -1.23578,19.4125 -1.93864,21.75 l -1.27792,4.25 6.40213,0 c 3.52117,0 6.40213,-0.24735 6.40213,-0.54966 z M 267.0942,317.3338 c -7.54674,-22.71449 -9.2528,-26.9953 -9.66454,-24.25 -0.59338,3.95646 -2.29462,4.29675 -3,0.60007 -0.49182,-2.57746 -1.26,-2.1875 -46.93773,23.82776 -25.54075,14.54646 -46.65325,26.66364 -46.91667,26.92705 -0.26341,0.26342 25.65761,0.47894 57.60227,0.47894 l 58.0812,0 -9.16453,-27.58382 z m -12.18323,23.39571 c -0.9304,-2.42459 -0.0843,-14.31189 1.01869,-14.31189 1.34116,0 1.87239,13.52761 0.58191,14.81809 -0.68846,0.68846 -1.20483,0.52516 -1.6006,-0.5062 z m 0,-23 c -0.9304,-2.42459 -0.0843,-14.31189 1.01869,-14.31189 1.34116,0 1.87239,13.52761 0.58191,14.81809 -0.68846,0.68846 -1.20483,0.52516 -1.6006,-0.5062 z m 142.51869,25.37374 c 0,-3.59473 -17.68709,-51.44344 -18.36391,-49.67969 -0.50139,1.30661 -0.98066,1.45298 -1.99665,0.60979 -1.03204,-0.85653 -11.67358,4.70739 -46.66756,24.40009 -24.93186,14.03029 -45.54993,25.7289 -45.81793,25.9969 -0.26801,0.26801 25.01272,0.48728 56.17938,0.48728 54.06748,0 56.66667,-0.0832 56.66667,-1.81437 z m -20.51869,-4.37374 c -0.9304,-2.42459 -0.0843,-14.31189 1.01869,-14.31189 1.34116,0 1.87239,13.52761 0.58191,14.81809 -0.68846,0.68846 -1.20483,0.52516 -1.6006,-0.5062 z m 0,-23 c -0.9304,-2.42459 -0.0843,-14.31189 1.01869,-14.31189 1.34116,0 1.87239,13.52761 0.58191,14.81809 -0.68846,0.68846 -1.20483,0.52516 -1.6006,-0.5062 z m 37.51869,502.18811 c 0,-4.32008 -0.26982,-5 -1.98422,-5 -1.09133,0 -3.38557,-1.2521 -5.09832,-2.78244 -5.5319,-4.94275 -5.08391,-15.58167 0.85276,-20.25145 1.37472,-1.08136 3.11381,-1.96611 3.86464,-1.96611 2.03733,0 1.64782,2.77835 -0.55477,3.95714 -2.55331,1.36649 -4.4331,7.3476 -3.63923,11.5793 0.55577,2.96252 3.63355,6.46356 5.68215,6.46356 0.3729,0 0.83527,-4.0034 1.02749,-8.89646 0.27551,-7.01307 0.75279,-9.34177 2.25449,-11 1.89816,-2.096 4.97474,-2.66252 8.05021,-1.48236 4.17846,1.60343 6.10258,13.46573 3.1198,19.23379 -1.39849,2.70438 -5.25135,5.14503 -8.12205,5.14503 -1.07687,0 -1.45295,1.29419 -1.45295,5 0,4.33333 -0.26667,5 -2,5 -1.73333,0 -2,-0.66667 -2,-5 z m 8.54545,-10.45455 c 4.60341,-4.6034 2.59776,-18.89543 -2.23688,-15.93978 -1.47867,0.90398 -1.86127,2.68249 -2.0975,9.75 -0.31532,9.43356 0.26372,10.26045 4.33438,6.18978 z m -25.54545,-2.54545 c 0,-5.15738 0.3647,-7.89264 1,-7.5 0.55,0.33992 1,3.71492 1,7.5 0,3.78508 -0.45,7.16008 -1,7.5 -0.6353,0.39264 -1,-2.34262 -1,-7.5 z m 69,6.77526 c -4.32086,-2.25218 -6.14165,-7.26489 -5.79642,-15.95775 0.35093,-8.83598 2.43651,-12.70924 7.64819,-14.20393 8.07577,-2.3161 13.37676,2.7391 13.97503,13.32708 0.42621,7.54284 -0.8785,12.89116 -3.78683,15.52317 -2.48483,2.24874 -8.90093,2.9476 -12.03997,1.31143 z m 7.4552,-2.39644 c 2.71937,-1.04352 4.5448,-5.96942 4.5448,-12.26406 0,-7.13987 -1.14948,-10.58921 -4.04527,-12.13899 -5.52685,-2.95788 -9.95473,2.34728 -9.95473,11.92701 0,9.71417 3.75181,14.66464 9.4552,12.47604 z m -37.18528,0.87118 c 0.27674,-0.9625 0.82737,-2.5375 1.22362,-3.5 0.57774,-1.40339 0.20408,-1.75 -1.88655,-1.75 -1.65066,0 -2.60699,-0.55025 -2.60699,-1.5 0,-1.04881 1.05719,-1.5 3.5147,-1.5 2.89216,0 3.86568,-0.57565 5.49626,-3.25 3.08991,-5.06782 2.67337,-5.75 -3.51096,-5.75 -4.22222,0 -5.5,-0.34848 -5.5,-1.5 0,-1.18659 1.42387,-1.5 6.81479,-1.5 6.80375,0 6.81749,-0.006 8.48382,-3.5 0.91797,-1.925 2.35131,-3.5 3.18521,-3.5 1.90854,0 1.92309,1.07975 0.048,3.55887 -2.14126,2.83098 -1.88093,3.44113 1.46818,3.44113 2,0 3,0.5 3,1.5 0,1.08206 -1.10885,1.5 -3.97968,1.5 -3.6295,0 -4.15744,0.34845 -6,3.96016 -1.11117,2.17809 -2.02032,4.20309 -2.02032,4.5 0,0.29691 2.7,0.53984 6,0.53984 4.66667,0 6,0.33333 6,1.5 0,1.19081 -1.44624,1.5 -7.01618,1.5 l -7.01618,0 -1.66903,3.5 c -1.71268,3.59153 -4.96431,5.00398 -4.02869,1.75 z m -39.26992,-28.25 c 0,-5.15738 0.3647,-7.89264 1,-7.5 0.55,0.33992 1,3.71492 1,7.5 0,3.78508 -0.45,7.16008 -1,7.5 -0.6353,0.39264 -1,-2.34262 -1,-7.5 z m -244.51869,5.81189 c -0.9304,-2.42459 -0.0843,-14.31189 1.01869,-14.31189 1.34116,0 1.87239,13.52761 0.58191,14.81809 -0.68846,0.68846 -1.20483,0.52516 -1.6006,-0.5062 z m 124.18536,-0.47856 c -1.06569,-1.06569 -0.76914,-15.15197 0.33333,-15.83333 0.63692,-0.39364 1,2.48962 1,7.94098 0,8.57488 -0.0941,9.13163 -1.33333,7.89235 z m 347.33333,-7.22492 c 0,-2.26113 -0.55279,-3.03034 -2.53537,-3.52793 -2.52571,-0.63391 -4.46463,-3.93005 -4.46463,-7.58982 0,-2.29253 4.53706,-7.78277 5.57546,-6.74679 0.41009,0.40913 -0.002,1.56956 -0.91492,2.57874 -2.77584,3.06727 -1.70034,10.17739 1.53946,10.17739 0.44,0 0.8,-2.385 0.8,-5.3 0,-2.915 0.54,-5.84 1.2,-6.5 3.21399,-3.21399 7.8,0.62091 7.8,6.52251 0,3.46622 -2.88039,7.27749 -5.5,7.27749 -1,0 -1.5,1 -1.5,3 0,1.65 -0.45,3 -1,3 -0.55,0 -1,-1.30122 -1,-2.89159 z m 4.94208,-6.53862 c 1.69298,-2.03991 0.96278,-9.06979 -0.94208,-9.06979 -1.10447,0 -1.5797,1.38434 -1.80226,5.25 -0.30405,5.28103 0.54771,6.46657 2.74434,3.81979 z m -304.94208,4.43021 c -3.46401,-3.46401 -1.78686,-9.49519 3.125,-11.23782 1.05085,-0.37283 0.84458,-1.06578 -0.875,-2.93945 -1.2375,-1.3484 -2.25,-2.76013 -2.25,-3.13718 0,-0.37705 2.25,-0.68555 5,-0.68555 2.75,0 5,0.45 5,1 0,0.55 -1.40236,1 -3.11636,1 l -3.11636,0 3.61636,4.00288 c 2.63531,2.91698 3.61636,4.90954 3.61636,7.34501 0,6.07718 -6.72908,8.92303 -11,4.65211 z m 8.36074,-2.19723 c 1.36627,-2.18256 -0.28031,-7.1636 -2.51003,-7.593 -3.38263,-0.65144 -6.67147,6.63613 -4.13813,9.16947 1.22393,1.22394 5.53507,0.20164 6.64816,-1.57647 z m 7.24625,2.61544 c -0.33385,-0.86998 -0.60699,-3.76842 -0.60699,-6.44098 0,-2.67256 -0.43359,-5.12717 -0.96353,-5.45469 -0.53788,-0.33243 -0.0961,-1.46289 1,-2.55901 2.33283,-2.33283 2.96353,-2.44922 2.96353,-0.54686 0,0.77916 0.5625,1.67916 1.25,2 1,0.46666 1,0.7 0,1.16666 -0.77436,0.36137 -1.25,2.64445 -1.25,6 0,4.23928 0.33887,5.41667 1.55902,5.41667 0.85746,0 1.2809,0.45 0.94098,1 -0.9647,1.56091 -4.21928,1.17394 -4.89301,-0.58179 z m 170.39301,-3.41821 c -3.46401,-3.46401 -1.78686,-9.49519 3.125,-11.23782 1.05085,-0.37283 0.84458,-1.06578 -0.875,-2.93945 -1.2375,-1.3484 -2.25,-2.76013 -2.25,-3.13718 0,-0.37705 2.25,-0.68555 5,-0.68555 2.75,0 5,0.45 5,1 0,0.55 -1.40236,1 -3.11636,1 l -3.11636,0 3.61636,4.00288 c 2.63531,2.91698 3.61636,4.90954 3.61636,7.34501 0,6.07718 -6.72908,8.92303 -11,4.65211 z m 8.36074,-2.19723 c 1.36627,-2.18256 -0.28031,-7.1636 -2.51003,-7.593 -3.38263,-0.65144 -6.67147,6.63613 -4.13813,9.16947 1.22393,1.22394 5.53507,0.20164 6.64816,-1.57647 z m 9.09381,1.74268 c -2.14155,-2.14154 -2.45455,-3.35297 -2.45455,-9.5 0,-5.59596 0.3086,-7.04545 1.5,-7.04545 1.20038,0 1.5,1.50238 1.5,7.52144 0,7.05245 0.15588,7.59246 2.5,8.66051 1.87016,0.85211 3.12984,0.85211 5,0 2.22292,-1.01282 2.51276,-1.77874 2.61515,-6.91051 0.0633,-3.17429 0.0351,-6.55894 -0.0629,-7.52144 -0.10133,-0.99611 0.49526,-1.75 1.38484,-1.75 1.27687,0 1.56286,1.35917 1.56286,7.42742 0,6.83289 -0.21091,7.59332 -2.63486,9.5 -3.56633,2.80527 -7.87417,2.65446 -10.91059,-0.38197 z m 36.54545,0.45455 c -3.46401,-3.46401 -1.78686,-9.49519 3.125,-11.23782 1.05085,-0.37283 0.84458,-1.06578 -0.875,-2.93945 -1.2375,-1.3484 -2.25,-2.76013 -2.25,-3.13718 0,-0.37705 2.25,-0.68555 5,-0.68555 2.75,0 5,0.45 5,1 0,0.55 -1.40236,1 -3.11636,1 l -3.11636,0 3.61636,4.00288 c 2.63531,2.91698 3.61636,4.90954 3.61636,7.34501 0,6.07718 -6.72908,8.92303 -11,4.65211 z m 8.36074,-2.19723 c 1.36627,-2.18256 -0.28031,-7.1636 -2.51003,-7.593 -3.38263,-0.65144 -6.67147,6.63613 -4.13813,9.16947 1.22393,1.22394 5.53507,0.20164 6.64816,-1.57647 z m 6.24625,2.61544 c -0.33385,-0.86998 -0.60699,-3.76842 -0.60699,-6.44098 0,-2.67256 -0.43359,-5.12717 -0.96353,-5.45469 -0.53788,-0.33243 -0.0961,-1.46289 1,-2.55901 2.33283,-2.33283 2.96353,-2.44922 2.96353,-0.54686 0,0.77916 0.5625,1.67916 1.25,2 1,0.46666 1,0.7 0,1.16666 -0.77436,0.36137 -1.25,2.64445 -1.25,6 0,4.23928 0.33887,5.41667 1.55902,5.41667 0.85746,0 1.2809,0.45 0.94098,1 -0.9647,1.56091 -4.21928,1.17394 -4.89301,-0.58179 z m 25.39301,-0.41821 c -3.46401,-3.46401 -1.78686,-9.49519 3.125,-11.23782 1.05085,-0.37283 0.84458,-1.06578 -0.875,-2.93945 -1.2375,-1.3484 -2.25,-2.76013 -2.25,-3.13718 0,-0.37705 2.25,-0.68555 5,-0.68555 2.75,0 5,0.45 5,1 0,0.55 -1.40236,1 -3.11636,1 l -3.11636,0 3.61636,4.00288 c 2.63531,2.91698 3.61636,4.90954 3.61636,7.34501 0,6.07718 -6.72908,8.92303 -11,4.65211 z m 8.36074,-2.19723 c 1.36627,-2.18256 -0.28031,-7.1636 -2.51003,-7.593 -3.38263,-0.65144 -6.67147,6.63613 -4.13813,9.16947 1.22393,1.22394 5.53507,0.20164 6.64816,-1.57647 z m 41.63926,-3.30277 c 0,-4.33333 0.42222,-7.5 1,-7.5 0.55,0 1,0.46583 1,1.03518 0,0.71358 0.60093,0.71358 1.93426,0 5.23246,-2.80033 8.06574,0.0226 8.06574,8.03625 0,4.5166 -0.34588,5.92857 -1.45228,5.92857 -1.08275,0 -1.52804,-1.58778 -1.75,-6.23996 -0.25022,-5.24445 -0.60625,-6.29879 -2.23162,-6.60874 -2.81429,-0.53666 -4.5661,2.54786 -4.5661,8.03983 0,2.64488 -0.45,4.80887 -1,4.80887 -0.57778,0 -1,-3.16667 -1,-7.5 z m -296.51869,2.31189 c -0.9304,-2.42459 -0.0843,-14.31189 1.01869,-14.31189 1.34116,0 1.87239,13.52761 0.58191,14.81809 -0.68846,0.68846 -1.20483,0.52516 -1.6006,-0.5062 z m 194.19625,-3.90877 c -1.00234,-0.59597 -2.91484,-0.8094 -4.25,-0.4743 -1.33516,0.33511 -2.42756,0.18104 -2.42756,-0.34238 0,-1.70125 3.94732,-2.25893 7.55694,-1.06765 1.93905,0.63995 4.21959,0.89721 5.06786,0.57169 0.96443,-0.37008 1.38844,-0.12322 1.13164,0.65884 -0.53807,1.63865 -4.76577,2.02912 -7.07888,0.6538 z m 40,0 c -1.00234,-0.59597 -2.91484,-0.8094 -4.25,-0.4743 -1.33516,0.33511 -2.42756,0.18104 -2.42756,-0.34238 0,-1.70125 3.94732,-2.25893 7.55694,-1.06765 1.93905,0.63995 4.21959,0.89721 5.06786,0.57169 0.96443,-0.37008 1.38844,-0.12322 1.13164,0.65884 -0.53807,1.63865 -4.76577,2.02912 -7.07888,0.6538 z m 51,0 c -1.00234,-0.59597 -2.91484,-0.8094 -4.25,-0.4743 -1.33516,0.33511 -2.42756,0.18104 -2.42756,-0.34238 0,-1.70125 3.94732,-2.25893 7.55694,-1.06765 1.93905,0.63995 4.21959,0.89721 5.06786,0.57169 0.96443,-0.37008 1.38844,-0.12322 1.13164,0.65884 -0.53807,1.63865 -4.76577,2.02912 -7.07888,0.6538 z M 539.42966,739.41762 c 0,-6.33333 0.39683,-10.5 1,-10.5 0.55,0 1,0.54 1,1.2 0,0.93333 0.26667,0.93333 1.2,0 1.68275,-1.68275 5.36352,-1.49362 7.22857,0.37143 0.9477,0.9477 1.57143,3.30086 1.57143,5.92857 0,6.38442 -3.28949,9.02099 -8.06574,6.46482 -1.76381,-0.94396 -1.93426,-0.67959 -1.93426,3 0,2.21935 -0.45,4.03518 -1,4.03518 -0.60317,0 -1,-4.16667 -1,-10.5 z m 8.8,1.3 c 1.66611,-1.66611 1.50398,-7.30283 -0.25196,-8.76013 -2.19941,-1.82535 -4.89465,-0.83908 -5.95625,2.17956 -1.84285,5.24011 2.71618,10.0726 6.20821,6.58057 z m 98.6427,7.78176 c -1.06675,-0.78003 -1.61364,-1.74416 -1.21529,-2.1425 0.39834,-0.39834 1.38536,-0.17559 2.19338,0.495 0.80802,0.6706 2.50639,1.07222 3.77417,0.8925 1.72844,-0.24502 2.38682,-1.0772 2.63199,-3.32676 0.26396,-2.42205 0.0809,-2.75919 -0.95,-1.75 -3.51895,3.44468 -8.87695,-0.32773 -8.87695,-6.25 0,-5.86556 5.38166,-9.71834 8.8,-6.3 0.93333,0.93333 1.2,0.93333 1.2,0 0,-0.66 0.675,-1.2 1.5,-1.2 1.21569,0 1.5,1.61111 1.5,8.5 0,7.16667 -0.31373,8.81373 -2,10.5 -2.34322,2.34322 -5.82468,2.5799 -8.5573,0.58176 z m 6.50309,-8.01644 c 1.61273,-1.94322 0.93398,-7.62599 -1.05987,-8.87362 -3.00478,-1.88022 -4.88592,-0.10522 -4.88592,4.61025 0,2.40059 0.3,4.66472 0.66667,5.03138 1.14871,1.14871 4.03712,0.7285 5.27912,-0.76801 z m -449.94579,3.43468 c 0,-1.1 0.45,-2 1,-2 0.55,0 1,0.9 1,2 0,1.1 -0.45,2 -1,2 -0.55,0 -1,-0.9 -1,-2 z m 194,-7 c 0,-5.15738 0.3647,-7.89264 1,-7.5 0.55,0.33992 1,3.71492 1,7.5 0,3.78508 -0.45,7.16008 -1,7.5 -0.6353,0.39264 -1,-2.34262 -1,-7.5 z m 104.44113,5.58061 c -1.44087,-1.05359 -1.94113,-2.62065 -1.94113,-6.08061 0,-5.23468 1.97419,-7.5 6.53614,-7.5 3.71517,0 5.96386,2.89341 5.96386,7.67375 0,6.40985 -5.59246,9.53839 -10.55887,5.90686 z m 7.75918,-3.1209 c 1.60976,-3.53305 -0.009,-7.85539 -3.10734,-8.2972 -2.73872,-0.39053 -4.05597,1.22652 -4.07766,5.0057 -0.024,4.18048 0.99909,5.83179 3.61312,5.83179 1.6152,0 2.79759,-0.8409 3.57188,-2.54029 z m 6.99969,3.34029 c -1.45467,-1.45467 -1.63359,-13.8 -0.2,-13.8 0.55,0 1,2.2132 1,4.91821 0,6.07693 0.72114,8.08179 2.90699,8.08179 2.91542,0 4.09301,-2.21534 4.09301,-7.7 0,-4.04444 0.35535,-5.3 1.5,-5.3 1.2,0 1.5,1.5 1.5,7.5 0,6 -0.3,7.5 -1.5,7.5 -0.825,0 -1.5,-0.54 -1.5,-1.2 0,-0.93333 -0.26667,-0.93333 -1.2,0 -0.66,0.66 -2.145,1.2 -3.3,1.2 -1.155,0 -2.64,-0.54 -3.3,-1.2 z m 15.40699,-0.38179 c -0.33385,-0.86998 -0.60699,-3.76842 -0.60699,-6.44098 0,-2.67256 -0.43359,-5.12717 -0.96353,-5.45469 -0.53788,-0.33243 -0.0961,-1.46289 1,-2.55901 2.33283,-2.33283 2.96353,-2.44922 2.96353,-0.54686 0,0.77916 0.5625,1.67916 1.25,2 1,0.46666 1,0.7 0,1.16666 -0.77436,0.36137 -1.25,2.64445 -1.25,6 0,4.23928 0.33887,5.41667 1.55902,5.41667 0.85746,0 1.2809,0.45 0.94098,1 -0.9647,1.56091 -4.21928,1.17394 -4.89301,-0.58179 z m 23.59301,0.38179 c -1.45467,-1.45467 -1.63359,-13.8 -0.2,-13.8 0.55,0 1,2.2132 1,4.91821 0,6.07693 0.72114,8.08179 2.90699,8.08179 2.91542,0 4.09301,-2.21534 4.09301,-7.7 0,-4.04444 0.35535,-5.3 1.5,-5.3 1.2,0 1.5,1.5 1.5,7.5 0,6 -0.3,7.5 -1.5,7.5 -0.825,0 -1.5,-0.54 -1.5,-1.2 0,-0.93333 -0.26667,-0.93333 -1.2,0 -0.66,0.66 -2.145,1.2 -3.3,1.2 -1.155,0 -2.64,-0.54 -3.3,-1.2 z m 15.40699,-0.38179 c -0.33385,-0.86998 -0.60699,-3.76842 -0.60699,-6.44098 0,-2.67256 -0.43359,-5.12717 -0.96353,-5.45469 -0.53788,-0.33243 -0.0961,-1.46289 1,-2.55901 2.33283,-2.33283 2.96353,-2.44922 2.96353,-0.54686 0,0.77916 0.5625,1.67916 1.25,2 1,0.46666 1,0.7 0,1.16666 -0.77436,0.36137 -1.25,2.64445 -1.25,6 0,4.23928 0.33887,5.41667 1.55902,5.41667 0.85746,0 1.2809,0.45 0.94098,1 -0.9647,1.56091 -4.21928,1.17394 -4.89301,-0.58179 z m 16.18437,-5.91821 c -2.11057,-5.86823 -2.3892,-7.5 -1.28068,-7.5 0.86404,0 2.1529,2.39791 3.3036,6.14633 2.06689,6.73292 2.148,6.71722 4.63294,-0.89633 0.94243,-2.8875 2.31256,-5.25 3.04473,-5.25 0.98997,0 0.64893,1.92138 -1.33036,7.49515 -1.71215,4.8215 -3.19866,7.49689 -4.16719,7.5 -0.96883,0.003 -2.46728,-2.66902 -4.20304,-7.49515 z m 14.64977,6.08061 c -1.44087,-1.05359 -1.94113,-2.62065 -1.94113,-6.08061 0,-5.23468 1.97419,-7.5 6.53614,-7.5 3.71517,0 5.96386,2.89341 5.96386,7.67375 0,6.40985 -5.59246,9.53839 -10.55887,5.90686 z m 7.75918,-3.1209 c 1.60976,-3.53305 -0.009,-7.85539 -3.10734,-8.2972 -2.73872,-0.39053 -4.05597,1.22652 -4.07766,5.0057 -0.024,4.18048 0.99909,5.83179 3.61312,5.83179 1.6152,0 2.79759,-0.8409 3.57188,-2.54029 z m 6.79969,-5.45971 c 0,-6 0.4,-10 1,-10 0.6,0 1,4 1,10 0,6 -0.4,10 -1,10 -0.6,0 -1,-4 -1,-10 z m 6.60699,8.41821 c -0.33385,-0.86998 -0.60699,-3.76842 -0.60699,-6.44098 0,-2.67256 -0.43359,-5.12717 -0.96353,-5.45469 -0.53788,-0.33243 -0.0961,-1.46289 1,-2.55901 2.33283,-2.33283 2.96353,-2.44922 2.96353,-0.54686 0,0.77916 0.5625,1.67916 1.25,2 1,0.46666 1,0.7 0,1.16666 -0.77436,0.36137 -1.25,2.64445 -1.25,6 0,4.23928 0.33887,5.41667 1.55902,5.41667 0.85746,0 1.2809,0.45 0.94098,1 -0.9647,1.56091 -4.21928,1.17394 -4.89301,-0.58179 z m 7.42819,-0.35247 c -0.56935,-1.06384 -1.03518,-2.3817 -1.03518,-2.92857 0,-2.09153 3.28552,-4.13717 6.64475,-4.13717 2.7949,0 3.4349,-0.35331 3.17002,-1.75 -0.36109,-1.90409 -5.81477,-3.13876 -5.81477,-1.31642 0,0.58653 -0.675,1.06642 -1.5,1.06642 -2.11747,0 -1.86331,-1.73519 0.43426,-2.96482 2.59527,-1.38894 6.39152,-1.3094 7.86574,0.16482 0.66,0.66 1.2,3.27 1.2,5.8 0,2.53 0.5325,5.1325 1.18333,5.78333 1.68198,1.68198 0.0782,2.86108 -2.06829,1.52059 -1.10211,-0.68829 -2.33798,-0.77601 -3.20452,-0.22746 -2.39642,1.51702 -5.78948,1.01822 -6.87534,-1.01072 z m 7.76482,-1.26574 c 2.30923,-2.30923 1.38163,-3.94423 -2.05,-3.61336 -2.49095,0.24017 -3.32463,0.83886 -3.56955,2.56336 -0.25425,1.79021 0.16467,2.25 2.05,2.25 1.30325,0 2.90955,-0.54 3.56955,-1.2 z m 24.64113,1.78061 c -1.44087,-1.05359 -1.94113,-2.62065 -1.94113,-6.08061 0,-3.45996 0.50026,-5.02702 1.94113,-6.08061 4.31643,-3.15625 10.55887,-0.54943 10.55887,4.40935 0,1.94303 -0.53328,2.17126 -5.07332,2.17126 -4.17019,0 -5.01577,0.29245 -4.75,1.64282 0.53398,2.71317 3.499,4.04081 5.8063,2.59989 2.54013,-1.58635 3.01702,-1.56259 3.01702,0.1503 0,2.76118 -6.33115,3.54777 -9.55887,1.1876 z m 8.55887,-8.38061 c 0,-1.54865 -2.42543,-3.2 -4.7,-3.2 -1.265,0 -2.3,0.1882 -2.3,0.41821 0,0.23002 -0.27314,1.13002 -0.60699,2 -0.49277,1.28415 0.16581,1.58179 3.5,1.58179 2.25885,0 4.10699,-0.36 4.10699,-0.8 z m -257,2.8 c 0,-4.32008 -0.26982,-5 -1.98422,-5 -1.09133,0 -3.38557,-1.2521 -5.09832,-2.78244 -5.5319,-4.94275 -5.08391,-15.58167 0.85276,-20.25145 1.37472,-1.08136 3.11381,-1.96611 3.86464,-1.96611 2.03733,0 1.64782,2.77835 -0.55477,3.95714 -2.55331,1.36649 -4.4331,7.3476 -3.63923,11.5793 0.55577,2.96252 3.63355,6.46356 5.68215,6.46356 0.3729,0 0.83527,-4.0034 1.02749,-8.89646 0.27551,-7.01307 0.75279,-9.34177 2.25449,-11 1.89816,-2.096 4.97474,-2.66252 8.05021,-1.48236 4.17846,1.60343 6.10258,13.46573 3.1198,19.23379 -1.39849,2.70438 -5.25135,5.14503 -8.12205,5.14503 -1.07687,0 -1.45295,1.29419 -1.45295,5 0,4.33333 -0.26667,5 -2,5 -1.73333,0 -2,-0.66667 -2,-5 z m 8.54545,-10.45455 c 4.60341,-4.6034 2.59776,-18.89543 -2.23688,-15.93978 -1.47867,0.90398 -1.86127,2.68249 -2.0975,9.75 -0.31532,9.43356 0.26372,10.26045 4.33438,6.18978 z m 44.45455,4.22981 c -4.32086,-2.25218 -6.14165,-7.26489 -5.79642,-15.95775 0.35093,-8.83598 2.43651,-12.70924 7.64819,-14.20393 8.07577,-2.3161 13.37676,2.7391 13.97503,13.32708 0.42621,7.54284 -0.8785,12.89116 -3.78683,15.52317 -2.48483,2.24874 -8.90093,2.9476 -12.03997,1.31143 z m 7.4552,-2.39644 c 2.71937,-1.04352 4.5448,-5.96942 4.5448,-12.26406 0,-7.13987 -1.14948,-10.58921 -4.04527,-12.13899 -5.52685,-2.95788 -9.95473,2.34728 -9.95473,11.92701 0,9.71417 3.75181,14.66464 9.4552,12.47604 z m -40.4552,-5.87882 c 0,-1.24638 1.94444,-1.5 11.5,-1.5 9.55556,0 11.5,0.25362 11.5,1.5 0,1.24638 -1.94444,1.5 -11.5,1.5 -9.55556,0 -11.5,-0.25362 -11.5,-1.5 z m -37,-8.5 c 0,-5.15738 0.3647,-7.89264 1,-7.5 0.55,0.33992 1,3.71492 1,7.5 0,3.78508 -0.45,7.16008 -1,7.5 -0.6353,0.39264 -1,-2.34262 -1,-7.5 z m 37,-3.5 c 0,-1.24638 1.94444,-1.5 11.5,-1.5 9.55556,0 11.5,0.25362 11.5,1.5 0,1.24638 -1.94444,1.5 -11.5,1.5 -9.55556,0 -11.5,-0.25362 -11.5,-1.5 z m -258.51869,-2.68811 c -0.9304,-2.42459 -0.0843,-14.31189 1.01869,-14.31189 1.34116,0 1.87239,13.52761 0.58191,14.81809 -0.68846,0.68846 -1.20483,0.52516 -1.6006,-0.5062 z m 130,-1 c -0.9304,-2.42459 -0.0843,-14.31189 1.01869,-14.31189 1.34116,0 1.87239,13.52761 0.58191,14.81809 -0.68846,0.68846 -1.20483,0.52516 -1.6006,-0.5062 z M 53.096321,706.25095 c -1.064079,-1.06408 -0.769981,-14.15144 0.333333,-14.83333 0.635069,-0.39249 1,2.32295 1,7.44098 0,8.08207 -0.09835,8.62734 -1.333333,7.39235 z m 109.940329,-3.91512 c -0.33385,-0.86998 -0.60699,-3.76842 -0.60699,-6.44098 0,-2.67256 -0.43359,-5.12717 -0.96353,-5.45469 -0.53788,-0.33243 -0.0961,-1.46289 1,-2.55901 2.33283,-2.33283 2.96353,-2.44922 2.96353,-0.54686 0,0.77916 0.5625,1.67916 1.25,2 1,0.46666 1,0.7 0,1.16666 -0.77436,0.36137 -1.25,2.64445 -1.25,6 0,4.23928 0.33887,5.41667 1.55902,5.41667 0.85746,0 1.2809,0.45 0.94098,1 -0.9647,1.56091 -4.21928,1.17394 -4.89301,-0.58179 z m 234.39301,-10.91821 c 0,-5.49071 0.36288,-8.39376 1,-8 0.55,0.33992 1,3.93992 1,8 0,4.06008 -0.45,7.66008 -1,8 -0.63712,0.39376 -1,-2.50929 -1,-8 z m -244.51869,5.31189 c -0.9304,-2.42459 -0.0843,-14.31189 1.01869,-14.31189 1.34116,0 1.87239,13.52761 0.58191,14.81809 -0.68846,0.68846 -1.20483,0.52516 -1.6006,-0.5062 z m 124.18536,-0.47856 c -1.06408,-1.06408 -0.76998,-14.15144 0.33333,-14.83333 0.63507,-0.39249 1,2.32295 1,7.44098 0,8.08207 -0.0983,8.62734 -1.33333,7.39235 z m 330.33333,-31.26378 c 0,-0.58825 0.65917,-1.06955 1.46482,-1.06955 3.09465,0 3.66006,-3.61157 1.43974,-9.19644 -4.04477,-10.17402 -3.95181,-9.80356 -2.46018,-9.80356 0.78533,0 2.11892,2.17985 3.05171,4.98824 0.91126,2.74353 2.04617,5.22886 2.52203,5.52296 0.47586,0.2941 1.64864,-1.95061 2.60616,-4.98824 0.95753,-3.03763 2.31362,-5.52296 3.01353,-5.52296 1.28401,0 -1.61947,9.05674 -5.44999,17 -1.60472,3.32767 -6.18782,5.60118 -6.18782,3.06955 z m -48.96482,-7.00381 c -0.56935,-1.06384 -1.03518,-2.3817 -1.03518,-2.92857 0,-2.09153 3.28552,-4.13717 6.64475,-4.13717 2.7949,0 3.4349,-0.35331 3.17002,-1.75 -0.36109,-1.90409 -5.81477,-3.13876 -5.81477,-1.31642 0,0.58653 -0.675,1.06642 -1.5,1.06642 -2.11747,0 -1.86331,-1.73519 0.43426,-2.96482 2.59527,-1.38894 6.39152,-1.3094 7.86574,0.16482 0.66,0.66 1.2,3.27 1.2,5.8 0,2.53 0.5325,5.1325 1.18333,5.78333 1.68198,1.68198 0.0782,2.86108 -2.06829,1.52059 -1.10211,-0.68829 -2.33798,-0.77601 -3.20452,-0.22746 -2.39642,1.51702 -5.78948,1.01822 -6.87534,-1.01072 z m 7.76482,-1.26574 c 2.30923,-2.30923 1.38163,-3.94423 -2.05,-3.61336 -2.49095,0.24017 -3.32463,0.83886 -3.56955,2.56336 -0.25425,1.79021 0.16467,2.25 2.05,2.25 1.30325,0 2.90955,-0.54 3.56955,-1.2 z m 7.2,-4.3 c 0,-4.33333 0.42222,-7.5 1,-7.5 0.55,0 1,0.54 1,1.2 0,0.93333 0.26667,0.93333 1.2,0 1.45618,-1.45618 3.8,-1.57954 3.8,-0.2 0,0.55 -0.68614,1 -1.52475,1 -1.94012,0 -3.47525,4.00435 -3.47525,9.0651 0,2.16419 -0.45,3.9349 -1,3.9349 -0.57778,0 -1,-3.16667 -1,-7.5 z m 10,0 c 0,-4.33333 0.42222,-7.5 1,-7.5 0.55,0 1,0.54 1,1.2 0,0.93333 0.26667,0.93333 1.2,0 1.45618,-1.45618 3.8,-1.57954 3.8,-0.2 0,0.55 -0.68614,1 -1.52475,1 -1.94012,0 -3.47525,4.00435 -3.47525,9.0651 0,2.16419 -0.45,3.9349 -1,3.9349 -0.57778,0 -1,-3.16667 -1,-7.5 z m 9.03518,5.56574 c -0.56935,-1.06384 -1.03518,-2.3817 -1.03518,-2.92857 0,-2.09153 3.28552,-4.13717 6.64475,-4.13717 2.7949,0 3.4349,-0.35331 3.17002,-1.75 -0.36109,-1.90409 -5.81477,-3.13876 -5.81477,-1.31642 0,0.58653 -0.675,1.06642 -1.5,1.06642 -2.11747,0 -1.86331,-1.73519 0.43426,-2.96482 2.59527,-1.38894 6.39152,-1.3094 7.86574,0.16482 0.66,0.66 1.2,3.27 1.2,5.8 0,2.53 0.5325,5.1325 1.18333,5.78333 1.68198,1.68198 0.0782,2.86108 -2.06829,1.52059 -1.10211,-0.68829 -2.33798,-0.77601 -3.20452,-0.22746 -2.39642,1.51702 -5.78948,1.01822 -6.87534,-1.01072 z m 7.76482,-1.26574 c 2.30923,-2.30923 1.38163,-3.94423 -2.05,-3.61336 -2.49095,0.24017 -3.32463,0.83886 -3.56955,2.56336 -0.25425,1.79021 0.16467,2.25 2.05,2.25 1.30325,0 2.90955,-0.54 3.56955,-1.2 z m -202.8,-10.8 c 0,-5.15738 0.3647,-7.89264 1,-7.5 0.55,0.33992 1,3.71492 1,7.5 0,3.78508 -0.45,7.16008 -1,7.5 -0.6353,0.39264 -1,-2.34262 -1,-7.5 z m -244.51869,5.81189 c -0.9304,-2.42459 -0.0843,-14.31189 1.01869,-14.31189 1.34116,0 1.87239,13.52761 0.58191,14.81809 -0.68846,0.68846 -1.20483,0.52516 -1.6006,-0.5062 z m 124.18536,-1.47856 c -1.06408,-1.06408 -0.76998,-14.15144 0.33333,-14.83333 0.63507,-0.39249 1,2.32295 1,7.44098 0,8.08207 -0.0983,8.62734 -1.33333,7.39235 z m 191.33333,-21.22492 c 0,-2.26113 -0.55279,-3.03034 -2.53537,-3.52793 -2.52571,-0.63391 -4.46463,-3.93005 -4.46463,-7.58982 0,-2.29253 4.53706,-7.78277 5.57546,-6.74679 0.41009,0.40913 -0.002,1.56956 -0.91492,2.57874 -2.77584,3.06727 -1.70034,10.17739 1.53946,10.17739 0.44,0 0.8,-2.385 0.8,-5.3 0,-2.915 0.54,-5.84 1.2,-6.5 3.21399,-3.21399 7.8,0.62091 7.8,6.52251 0,3.46622 -2.88039,7.27749 -5.5,7.27749 -1,0 -1.5,1 -1.5,3 0,1.65 -0.45,3 -1,3 -0.55,0 -1,-1.30122 -1,-2.89159 z m 4.94208,-6.53862 c 1.69298,-2.03991 0.96278,-9.06979 -0.94208,-9.06979 -1.10447,0 -1.5797,1.38434 -1.80226,5.25 -0.30405,5.28103 0.54771,6.46657 2.74434,3.81979 z m 159.50062,8.01197 c -1.06675,-0.78003 -1.61364,-1.74416 -1.21529,-2.1425 0.39834,-0.39834 1.38536,-0.17559 2.19338,0.495 0.80802,0.6706 2.50639,1.07222 3.77417,0.8925 1.72844,-0.24502 2.38682,-1.0772 2.63199,-3.32676 0.26396,-2.42205 0.0809,-2.75919 -0.95,-1.75 -3.51895,3.44468 -8.87695,-0.32773 -8.87695,-6.25 0,-5.86556 5.38166,-9.71834 8.8,-6.3 0.93333,0.93333 1.2,0.93333 1.2,0 0,-0.66 0.675,-1.2 1.5,-1.2 1.21569,0 1.5,1.61111 1.5,8.5 0,7.16667 -0.31373,8.81373 -2,10.5 -2.34322,2.34322 -5.82468,2.5799 -8.5573,0.58176 z m 6.50309,-8.01644 c 1.61273,-1.94322 0.93398,-7.62599 -1.05987,-8.87362 -3.00478,-1.88022 -4.88592,-0.10522 -4.88592,4.61025 0,2.40059 0.3,4.66472 0.66667,5.03138 1.14871,1.14871 4.03712,0.7285 5.27912,-0.76801 z m -241.94579,0.37566 c 0,-5.11803 0.36493,-7.83347 1,-7.44098 0.55,0.33992 1,3.96648 1,8.05902 0,4.29399 -0.42293,7.44098 -1,7.44098 -0.58394,0 -1,-3.35301 -1,-8.05902 z m -244.51869,5.87091 c -0.9304,-2.42459 -0.0843,-14.31189 1.01869,-14.31189 1.34116,0 1.87239,13.52761 0.58191,14.81809 -0.68846,0.68846 -1.20483,0.52516 -1.6006,-0.5062 z m 124.18536,-0.47856 c -1.06408,-1.06408 -0.76998,-14.15144 0.33333,-14.83333 0.63507,-0.39249 1,2.32295 1,7.44098 0,8.08207 -0.0983,8.62734 -1.33333,7.39235 z m 220.40591,-4.96819 c -3.24224,-4.12184 -2.48216,-13.0563 1.32712,-15.59983 2.03375,-1.35796 5.58447,-0.78114 7.6003,1.23469 1.51515,1.51515 2,3.33333 2,7.5 0,4.16667 -0.48485,5.98485 -2,7.5 -2.79084,2.79084 -6.43671,2.53157 -8.92742,-0.63486 z m 7.89224,-1.2994 c 0.56935,-1.06384 1.03518,-3.56842 1.03518,-5.56574 0,-4.51908 -1.52432,-7.5 -3.83518,-7.5 -2.96364,0 -4.16482,2.16309 -4.16482,7.5 0,2.805 0.54,5.64 1.2,6.3 1.80186,1.80186 4.59814,1.4457 5.76482,-0.73426 z m 52.03518,-3.56574 c 0,-4.33333 0.42222,-7.5 1,-7.5 0.55,0 1,0.54 1,1.2 0,0.93333 0.26667,0.93333 1.2,0 1.52537,-1.52537 5.05184,-1.54816 6.55762,-0.0424 0.87682,0.87682 1.52859,0.84974 2.68701,-0.11167 0.89035,-0.73892 2.57944,-1.00574 4.04238,-0.63857 2.38377,0.59829 2.51299,0.9897 2.51299,7.61167 0,8.66235 -1.79552,9.26648 -2.20228,0.74099 -0.24712,-5.1795 -0.61725,-6.30087 -2.17789,-6.59839 -2.63345,-0.50204 -3.58677,1.50492 -3.60452,7.58835 -0.008,2.8875 -0.46531,5.25 -1.01531,5.25 -0.55,0 -1.00614,-1.9125 -1.01365,-4.25 -0.0197,-6.13679 -0.93593,-8.75 -3.0678,-8.75 -2.52881,2e-5 -3.91855,2.99129 -3.91855,8.43428 0,2.51116 -0.45,4.56574 -1,4.56574 -0.57778,0 -1,-3.16667 -1,-7.5 z m 24.44113,6.08061 c -1.44087,-1.05359 -1.94113,-2.62065 -1.94113,-6.08061 0,-5.23468 1.97419,-7.5 6.53614,-7.5 3.71517,0 5.96386,2.89341 5.96386,7.67375 0,6.40985 -5.59246,9.53839 -10.55887,5.90686 z m 7.75918,-3.1209 c 1.60976,-3.53305 -0.009,-7.85539 -3.10734,-8.2972 -2.73872,-0.39053 -4.05597,1.22652 -4.07766,5.0057 -0.024,4.18048 0.99909,5.83179 3.61312,5.83179 1.6152,0 2.79759,-0.8409 3.57188,-2.54029 z m 7.59105,-2.95971 c -2.11057,-5.86823 -2.3892,-7.5 -1.28068,-7.5 0.86404,0 2.1529,2.39791 3.3036,6.14633 2.06689,6.73292 2.148,6.71722 4.63294,-0.89633 0.94243,-2.8875 2.31256,-5.25 3.04473,-5.25 0.98997,0 0.64893,1.92138 -1.33036,7.49515 -1.71215,4.8215 -3.19866,7.49689 -4.16719,7.5 -0.96883,0.003 -2.46728,-2.66902 -4.20304,-7.49515 z m 13.20864,0 c 0,-4.33333 0.42222,-7.5 1,-7.5 0.57778,0 1,3.16667 1,7.5 0,4.33333 -0.42222,7.5 -1,7.5 -0.57778,0 -1,-3.16667 -1,-7.5 z m 6,0 c 0,-4.33333 0.42222,-7.5 1,-7.5 0.55,0 1,0.46583 1,1.03518 0,0.71358 0.60093,0.71358 1.93426,0 5.23246,-2.80033 8.06574,0.0226 8.06574,8.03625 0,4.5166 -0.34588,5.92857 -1.45228,5.92857 -1.08275,0 -1.52804,-1.58778 -1.75,-6.23996 -0.25022,-5.24445 -0.60625,-6.29879 -2.23162,-6.60874 -2.81429,-0.53666 -4.5661,2.54786 -4.5661,8.03983 0,2.64488 -0.45,4.80887 -1,4.80887 -0.57778,0 -1,-3.16667 -1,-7.5 z m -134,4.5 c 0.85431,-1.5963 0.76049,-2 -0.46482,-2 -0.84435,0 -1.53518,-0.45 -1.53518,-1 0,-0.55 0.81,-1 1.8,-1 2.10574,0 4.2,-1.84494 4.2,-3.7 0,-0.77778 -1.20513,-1.3 -3,-1.3 -1.65,0 -3,-0.45 -3,-1 0,-0.55 1.78417,-1 3.96482,-1 2.94136,0 4.24111,-0.51627 5.03518,-2 0.5887,-1.1 1.52037,-2 2.07037,-2 0.66268,0 0.65887,0.6374 -0.0113,1.88962 -0.82591,1.54322 -0.60322,2.02138 1.21481,2.60842 2.11349,0.68244 2.08038,0.75126 -0.65455,1.36038 -1.58436,0.35287 -3.55175,1.65408 -4.37197,2.89158 -1.45246,2.19138 -1.39848,2.25 2.07164,2.25 1.95963,0 3.84107,0.45 4.18099,1 0.37723,0.61038 -1.14455,1 -3.9058,1 -3.50038,0 -4.76599,0.45247 -5.5942,2 -0.5887,1.1 -1.52037,2 -2.07037,2 -0.64321,0 -0.6181,-0.71358 0.0704,-2 z m 54.5,0 c 0.38487,-0.62272 -1.95084,-1.07389 -6.19098,-1.19586 l -6.80902,-0.19586 6.83868,-0.35185 c 5.8598,-0.30149 6.74826,-0.58749 6.20697,-1.99807 -0.53342,-1.39005 -0.31434,-1.35901 1.40778,0.1995 1.55745,1.40946 1.77504,2.16439 0.92059,3.19393 -1.28861,1.55269 -3.30084,1.84783 -2.37402,0.34821 z m -361.01869,-6.18811 c -0.9304,-2.42459 -0.0843,-14.31189 1.01869,-14.31189 1.34116,0 1.87239,13.52761 0.58191,14.81809 -0.68846,0.68846 -1.20483,0.52516 -1.6006,-0.5062 z M 53.096321,616.25095 c -1.065689,-1.06569 -0.769136,-15.15197 0.333333,-15.83333 0.636915,-0.39364 1,2.48962 1,7.94098 0,8.57488 -0.09406,9.13163 -1.333333,7.89235 z m 252.814649,-0.52144 c -0.9304,-2.42459 -0.0843,-14.31189 1.01869,-14.31189 1.34116,0 1.87239,13.52761 0.58191,14.81809 -0.68846,0.68846 -1.20483,0.52516 -1.6006,-0.5062 z m -173.48131,-9.81189 c 0,-5.15738 0.3647,-7.89264 1,-7.5 0.55,0.33992 1,3.71492 1,7.5 0,3.78508 -0.45,7.16008 -1,7.5 -0.6353,0.39264 -1,-2.34262 -1,-7.5 z m 122.48131,6.81189 c -0.9304,-2.42459 -0.0843,-14.31189 1.01869,-14.31189 1.34116,0 1.87239,13.52761 0.58191,14.81809 -0.68846,0.68846 -1.20483,0.52516 -1.6006,-0.5062 z m 122,-2 c -0.9304,-2.42459 -0.0843,-14.31189 1.01869,-14.31189 1.34116,0 1.87239,13.52761 0.58191,14.81809 -0.68846,0.68846 -1.20483,0.52516 -1.6006,-0.5062 z m 20.51869,-9.81189 c 0,-5.15738 0.3647,-7.89264 1,-7.5 0.55,0.33992 1,3.71492 1,7.5 0,3.78508 -0.45,7.16008 -1,7.5 -0.6353,0.39264 -1,-2.34262 -1,-7.5 z m 213,6 c 0,-0.55 0.45,-1 1,-1 0.55,0 1,0.45 1,1 0,0.55 -0.45,1 -1,1 -0.55,0 -1,-0.45 -1,-1 z m -142,-33.22474 c -4.32086,-2.25218 -6.14165,-7.26489 -5.79642,-15.95775 0.35093,-8.83598 2.43651,-12.70924 7.64819,-14.20393 8.07577,-2.3161 13.37676,2.7391 13.97503,13.32708 0.42621,7.54284 -0.8785,12.89116 -3.78683,15.52317 -2.48483,2.24874 -8.90093,2.9476 -12.03997,1.31143 z m 7.4552,-2.39644 c 2.71937,-1.04352 4.5448,-5.96942 4.5448,-12.26406 0,-7.13987 -1.14948,-10.58921 -4.04527,-12.13899 -5.52685,-2.95788 -9.95473,2.34728 -9.95473,11.92701 0,9.71417 3.75181,14.66464 9.4552,12.47604 z m -40.4552,-5.87882 c 0,-1.24638 1.94444,-1.5 11.5,-1.5 9.55556,0 11.5,0.25362 11.5,1.5 0,1.24638 -1.94444,1.5 -11.5,1.5 -9.55556,0 -11.5,-0.25362 -11.5,-1.5 z m -38,-10.55902 c 0,-5.11803 0.36493,-7.83347 1,-7.44098 0.55,0.33992 1,3.96648 1,8.05902 0,4.29399 -0.42293,7.44098 -1,7.44098 -0.58394,0 -1,-3.35301 -1,-8.05902 z m -244.51869,5.87091 c -0.9304,-2.42459 -0.0843,-14.31189 1.01869,-14.31189 1.34116,0 1.87239,13.52761 0.58191,14.81809 -0.68846,0.68846 -1.20483,0.52516 -1.6006,-0.5062 z m 124.18536,-0.47856 c -1.06408,-1.06408 -0.76998,-14.15144 0.33333,-14.83333 0.63507,-0.39249 1,2.32295 1,7.44098 0,8.08207 -0.0983,8.62734 -1.33333,7.39235 z m 158.33333,-6.83333 c 0,-1.24638 1.94444,-1.5 11.5,-1.5 9.55556,0 11.5,0.25362 11.5,1.5 0,1.24638 -1.94444,1.5 -11.5,1.5 -9.55556,0 -11.5,-0.25362 -11.5,-1.5 z m -303,-15.5 c 0,-5.15738 0.3647,-7.89264 1,-7.5 0.55,0.33992 1,3.71492 1,7.5 0,3.78508 -0.45,7.16008 -1,7.5 -0.6353,0.39264 -1,-2.34262 -1,-7.5 z m 122.48131,6.81189 c -0.9304,-2.42459 -0.0843,-14.31189 1.01869,-14.31189 1.34116,0 1.87239,13.52761 0.58191,14.81809 -0.68846,0.68846 -1.20483,0.52516 -1.6006,-0.5062 z m 122,-2 c -0.9304,-2.42459 -0.0843,-14.31189 1.01869,-14.31189 1.34116,0 1.87239,13.52761 0.58191,14.81809 -0.68846,0.68846 -1.20483,0.52516 -1.6006,-0.5062 z m 20.51869,-9.81189 c 0,-5.15738 0.3647,-7.89264 1,-7.5 0.55,0.33992 1,3.71492 1,7.5 0,3.78508 -0.45,7.16008 -1,7.5 -0.6353,0.39264 -1,-2.34262 -1,-7.5 z m -244.51869,4.81189 c -0.9304,-2.42459 -0.0843,-14.31189 1.01869,-14.31189 1.34116,0 1.87239,13.52761 0.58191,14.81809 -0.68846,0.68846 -1.20483,0.52516 -1.6006,-0.5062 z m 124.18536,-0.47856 c -1.06408,-1.06408 -0.76998,-14.15144 0.33333,-14.83333 0.63507,-0.39249 1,2.32295 1,7.44098 0,8.08207 -0.0983,8.62734 -1.33333,7.39235 z M 132.42966,492.97664 c 0,-4.70601 0.41606,-8.05902 1,-8.05902 0.57707,0 1,3.14699 1,7.44098 0,4.09254 -0.45,7.7191 -1,8.05902 -0.63507,0.39249 -1,-2.32295 -1,-7.44098 z m 122.63948,7.24713 c -0.35171,-0.35172 -0.63948,-3.93948 -0.63948,-7.97282 0,-5.85185 0.30303,-7.33333 1.5,-7.33333 1.19894,0 1.5,1.49344 1.5,7.44098 0,6.87642 -0.77315,9.45253 -2.36052,7.86517 z m 239.54466,-4.1923 c -1.4714,-2.61801 -2.18414,-5.59209 -2.18414,-9.11385 0,-3.52176 0.71274,-6.49584 2.18414,-9.11385 3.17197,-5.64375 5.08552,-4.95611 2.17985,0.78333 -1.30019,2.56821 -2.36399,6.31695 -2.36399,8.33052 0,2.01357 1.0638,5.76231 2.36399,8.33052 2.90567,5.73944 0.99212,6.42708 -2.17985,0.78333 z m 28.81586,0.99456 c 0,-2.26113 -0.55279,-3.03034 -2.53537,-3.52793 -2.52571,-0.63391 -4.46463,-3.93005 -4.46463,-7.58982 0,-2.29253 4.53706,-7.78277 5.57546,-6.74679 0.41009,0.40913 -0.002,1.56956 -0.91492,2.57874 -2.77584,3.06727 -1.70034,10.17739 1.53946,10.17739 0.44,0 0.8,-2.385 0.8,-5.3 0,-2.915 0.54,-5.84 1.2,-6.5 3.21399,-3.21399 7.8,0.62091 7.8,6.52251 0,3.46622 -2.88039,7.27749 -5.5,7.27749 -1,0 -1.5,1 -1.5,3 0,1.65 -0.45,3 -1,3 -0.55,0 -1,-1.30122 -1,-2.89159 z m 4.94208,-6.53862 c 1.69298,-2.03991 0.96278,-9.06979 -0.94208,-9.06979 -1.10447,0 -1.5797,1.38434 -1.80226,5.25 -0.30405,5.28103 0.54771,6.46657 2.74434,3.81979 z m 89.05792,9.22499 c 0,-0.20455 0.9,-2.13719 2,-4.29478 2.56791,-5.03681 2.57407,-11.95111 0.0151,-16.97034 -2.00824,-3.93906 -2.03276,-5.27663 -0.0745,-4.06638 4.39055,2.71351 5.8793,15.73588 2.46692,21.57868 -1.59678,2.73406 -4.4075,5.12728 -4.4075,3.75282 z m -240.36052,-1.48863 c -0.35171,-0.35172 -0.63948,-3.93948 -0.63948,-7.97282 0,-5.85185 0.30303,-7.33333 1.5,-7.33333 1.19894,0 1.5,1.49344 1.5,7.44098 0,6.87642 -0.77315,9.45253 -2.36052,7.86517 z m 20.36052,-11.30615 c 0,-5.15738 0.3647,-7.89264 1,-7.5 0.55,0.33992 1,3.71492 1,7.5 0,3.78508 -0.45,7.16008 -1,7.5 -0.6353,0.39264 -1,-2.34262 -1,-7.5 z m -244.51869,5.81189 c -0.9304,-2.42459 -0.0843,-14.31189 1.01869,-14.31189 1.34116,0 1.87239,13.52761 0.58191,14.81809 -0.68846,0.68846 -1.20483,0.52516 -1.6006,-0.5062 z m 349.51869,-0.81189 c -3.46401,-3.46401 -1.78686,-9.49519 3.125,-11.23782 1.05085,-0.37283 0.84458,-1.06578 -0.875,-2.93945 -1.2375,-1.3484 -2.25,-2.76013 -2.25,-3.13718 0,-0.37705 2.25,-0.68555 5,-0.68555 2.75,0 5,0.45 5,1 0,0.55 -1.40236,1 -3.11636,1 l -3.11636,0 3.61636,4.00288 c 2.63531,2.91698 3.61636,4.90954 3.61636,7.34501 0,6.07718 -6.72908,8.92303 -11,4.65211 z m 8.36074,-2.19723 c 1.36627,-2.18256 -0.28031,-7.1636 -2.51003,-7.593 -3.38263,-0.65144 -6.67147,6.63613 -4.13813,9.16947 1.22393,1.22394 5.53507,0.20164 6.64816,-1.57647 z m 40.68601,2.94723 c 0.11468,-3.0665 6.70291,-17.27069 8.1388,-17.54722 1.13097,-0.2178 2.58928,2.12604 5.19349,8.34715 1.99153,4.7575 3.62096,9.05501 3.62096,9.55003 0,0.49502 -3.825,0.90004 -8.5,0.90004 -6.15827,0 -8.48712,-0.34437 -8.45325,-1.25 z m 13.46309,-2.5 c -0.38727,-0.9625 -1.65442,-4.19493 -2.81587,-7.18319 l -2.11174,-5.43319 -2.15286,4.93319 c -4.2572,9.75516 -4.32923,9.43319 2.11023,9.43319 5.00574,0 5.59141,-0.20621 4.97024,-1.75 z m 6.49016,-5.75 c 0,-7.77778 0.27193,-9.5 1.5,-9.5 1.21569,0 1.5,1.61111 1.5,8.5 l 0,8.5 5,0 c 2.75,0 5,0.45 5,1 0,0.5641 -2.83333,1 -6.5,1 l -6.5,0 0,-9.5 z m 16,8 c 0,-0.825 0.45,-1.5 1,-1.5 0.55,0 1,0.675 1,1.5 0,0.825 -0.45,1.5 -1,1.5 -0.55,0 -1,-0.675 -1,-1.5 z m 8,-0.5 c -3.46401,-3.46401 -1.78686,-9.49519 3.125,-11.23782 1.05085,-0.37283 0.84458,-1.06578 -0.875,-2.93945 -1.2375,-1.3484 -2.25,-2.76013 -2.25,-3.13718 0,-0.37705 2.25,-0.68555 5,-0.68555 2.75,0 5,0.45 5,1 0,0.55 -1.40236,1 -3.11636,1 l -3.11636,0 3.61636,4.00288 c 2.63531,2.91698 3.61636,4.90954 3.61636,7.34501 0,6.07718 -6.72908,8.92303 -11,4.65211 z m 8.36074,-2.19723 c 1.36627,-2.18256 -0.28031,-7.1636 -2.51003,-7.593 -3.38263,-0.65144 -6.67147,6.63613 -4.13813,9.16947 1.22393,1.22394 5.53507,0.20164 6.64816,-1.57647 z m 6.86443,-1.89768 c -0.0758,-3.35219 -0.66257,-6.72719 -1.30393,-7.5 -0.86804,-1.04592 -0.87288,-1.40509 -0.0189,-1.40509 0.63095,0 1.57492,-1.125 2.09769,-2.5 0.92538,-2.43394 5,-3.65633 5,-1.5 0,0.55 -0.675,1 -1.5,1 -0.825,0 -1.5,0.675 -1.5,1.5 0,0.825 0.675,1.5 1.5,1.5 0.825,0 1.5,0.45 1.5,1 0,0.55 -0.675,1 -1.5,1 -1.17949,0 -1.5,1.38889 -1.5,6.5 0,4.71347 -0.36239,6.5 -1.31851,6.5 -0.93206,0 -1.35891,-1.78642 -1.45632,-6.09491 z m -333.5585,4.42824 c -1.06408,-1.06408 -0.76998,-14.15144 0.33333,-14.83333 0.63507,-0.39249 1,2.32295 1,7.44098 0,8.08207 -0.0983,8.62734 -1.33333,7.39235 z m 264.01089,-7.43021 c -1.00234,-0.59597 -2.91484,-0.8094 -4.25,-0.4743 -1.33516,0.33511 -2.42756,0.18104 -2.42756,-0.34238 0,-1.70125 3.94732,-2.25893 7.55694,-1.06765 1.93905,0.63995 4.21959,0.89721 5.06786,0.57169 0.96443,-0.37008 1.38844,-0.12322 1.13164,0.65884 -0.53807,1.63865 -4.76577,2.02912 -7.07888,0.6538 z M 132.42966,469.91762 c 0,-5.15738 0.3647,-7.89264 1,-7.5 0.55,0.33992 1,3.71492 1,7.5 0,3.78508 -0.45,7.16008 -1,7.5 -0.6353,0.39264 -1,-2.34262 -1,-7.5 z m 122.48131,6.81189 c -0.9304,-2.42459 -0.0843,-14.31189 1.01869,-14.31189 1.34116,0 1.87239,13.52761 0.58191,14.81809 -0.68846,0.68846 -1.20483,0.52516 -1.6006,-0.5062 z m 122,-2 c -0.9304,-2.42459 -0.0843,-14.31189 1.01869,-14.31189 1.34116,0 1.87239,13.52761 0.58191,14.81809 -0.68846,0.68846 -1.20483,0.52516 -1.6006,-0.5062 z m 20.51869,-9.81189 c 0,-5.15738 0.3647,-7.89264 1,-7.5 0.55,0.33992 1,3.71492 1,7.5 0,3.78508 -0.45,7.16008 -1,7.5 -0.6353,0.39264 -1,-2.34262 -1,-7.5 z m -244.51869,4.81189 c -0.9304,-2.42459 -0.0843,-14.31189 1.01869,-14.31189 1.34116,0 1.87239,13.52761 0.58191,14.81809 -0.68846,0.68846 -1.20483,0.52516 -1.6006,-0.5062 z m 124.18536,-0.47856 c -1.06408,-1.06408 -0.76998,-14.15144 0.33333,-14.83333 0.63507,-0.39249 1,2.32295 1,7.44098 0,8.08207 -0.0983,8.62734 -1.33333,7.39235 z m 281.33333,-6.22492 c 0,-2.26113 -0.55279,-3.03034 -2.53537,-3.52793 -2.52571,-0.63391 -4.46463,-3.93005 -4.46463,-7.58982 0,-2.29253 4.53706,-7.78277 5.57546,-6.74679 0.41009,0.40913 -0.002,1.56956 -0.91492,2.57874 -2.77584,3.06727 -1.70034,10.17739 1.53946,10.17739 0.44,0 0.8,-2.385 0.8,-5.3 0,-2.915 0.54,-5.84 1.2,-6.5 3.21399,-3.21399 7.8,0.62091 7.8,6.52251 0,3.46622 -2.88039,7.27749 -5.5,7.27749 -1,0 -1.5,1 -1.5,3 0,1.65 -0.45,3 -1,3 -0.55,0 -1,-1.30122 -1,-2.89159 z m 4.94208,-6.53862 c 1.69298,-2.03991 0.96278,-9.06979 -0.94208,-9.06979 -1.10447,0 -1.5797,1.38434 -1.80226,5.25 -0.30405,5.28103 0.54771,6.46657 2.74434,3.81979 z m -66.71691,-2.6647 c -0.0758,-3.35219 -0.66257,-6.72719 -1.30393,-7.5 -0.86804,-1.04592 -0.87288,-1.40509 -0.0189,-1.40509 0.63095,0 1.57492,-1.125 2.09769,-2.5 0.92538,-2.43394 5,-3.65633 5,-1.5 0,0.55 -0.675,1 -1.5,1 -0.825,0 -1.5,0.675 -1.5,1.5 0,0.825 0.675,1.5 1.5,1.5 0.825,0 1.5,0.45 1.5,1 0,0.55 -0.675,1 -1.5,1 -1.17949,0 -1.5,1.38889 -1.5,6.5 0,4.71347 -0.36239,6.5 -1.31851,6.5 -0.93206,0 -1.35891,-1.78642 -1.45632,-6.09491 z m 10.21596,4.67552 c -1.44087,-1.05359 -1.94113,-2.62065 -1.94113,-6.08061 0,-5.23468 1.97419,-7.5 6.53614,-7.5 3.71517,0 5.96386,2.89341 5.96386,7.67375 0,6.40985 -5.59246,9.53839 -10.55887,5.90686 z m 7.75918,-3.1209 c 1.60976,-3.53305 -0.009,-7.85539 -3.10734,-8.2972 -2.73872,-0.39053 -4.05597,1.22652 -4.07766,5.0057 -0.024,4.18048 0.99909,5.83179 3.61312,5.83179 1.6152,0 2.79759,-0.8409 3.57188,-2.54029 z m 5.79969,-2.95971 c 0,-4.33333 0.42222,-7.5 1,-7.5 0.55,0 1,0.54 1,1.2 0,0.93333 0.26667,0.93333 1.2,0 1.45618,-1.45618 3.8,-1.57954 3.8,-0.2 0,0.55 -0.68614,1 -1.52475,1 -1.94012,0 -3.47525,4.00435 -3.47525,9.0651 0,2.16419 -0.45,3.9349 -1,3.9349 -0.57778,0 -1,-3.16667 -1,-7.5 z m 18,5.5 c -3.46401,-3.46401 -1.78686,-9.49519 3.125,-11.23782 1.05085,-0.37283 0.84458,-1.06578 -0.875,-2.93945 -1.2375,-1.3484 -2.25,-2.76013 -2.25,-3.13718 0,-0.37705 2.25,-0.68555 5,-0.68555 2.75,0 5,0.45 5,1 0,0.55 -1.40236,1 -3.11636,1 l -3.11636,0 3.61636,4.00288 c 2.63531,2.91698 3.61636,4.90954 3.61636,7.34501 0,6.07718 -6.72908,8.92303 -11,4.65211 z m 8.36074,-2.19723 c 1.36627,-2.18256 -0.28031,-7.1636 -2.51003,-7.593 -3.38263,-0.65144 -6.67147,6.63613 -4.13813,9.16947 1.22393,1.22394 5.53507,0.20164 6.64816,-1.57647 z m 39.63926,3.00764 c 0,-0.65427 2.28789,-3.30397 5.0842,-5.88822 3.83071,-3.54021 5.0018,-5.28092 4.75,-7.06041 -0.40088,-2.83301 -3.90539,-3.68585 -5.79415,-1.41004 -1.61995,1.95192 -3.04005,1.9909 -3.04005,0.0834 0,-3.47254 7.6106,-4.72793 10.34501,-1.70644 2.71289,2.99771 1.93803,5.2223 -3.59501,10.32104 l -5.25,4.83792 5.25,0.006 c 2.8875,0.003 5.25,0.45615 5.25,1.00615 0,0.5641 -2.83333,1 -6.5,1 -4.35729,0 -6.5,-0.39215 -6.5,-1.18959 z m 19.41797,-1.06041 c 0.25085,-1.2375 0.71474,-4.1625 1.03087,-6.5 0.51152,-3.78213 0.35332,-4.25 -1.43702,-4.25 -1.1065,0 -2.01182,-0.45 -2.01182,-1 0,-0.58824 3.5,-1 8.5,-1 5,0 8.5,0.41176 8.5,1 0,0.55 -0.675,1 -1.5,1 -1.15152,0 -1.5,1.27778 -1.5,5.5 0,3.025 0.45,5.5 1,5.5 0.55,0 1,0.45 1,1 0,1.75403 -2.89062,1.0729 -3.96482,-0.93426 -0.56935,-1.06384 -1.03518,-3.98884 -1.03518,-6.5 0,-4.20346 -0.19837,-4.56574 -2.5,-4.56574 -2.05794,0 -2.50195,0.48627 -2.51101,2.75 -0.0219,5.48062 -1.24982,10.25 -2.63888,10.25 -0.9081,0 -1.23048,-0.77817 -0.93214,-2.25 z m -473.41797,-10.75 c 0,-5.15738 0.3647,-7.89264 1,-7.5 0.55,0.33992 1,3.71492 1,7.5 0,3.78508 -0.45,7.16008 -1,7.5 -0.6353,0.39264 -1,-2.34262 -1,-7.5 z m 122.48131,6.81189 c -0.9304,-2.42459 -0.0843,-14.31189 1.01869,-14.31189 1.34116,0 1.87239,13.52761 0.58191,14.81809 -0.68846,0.68846 -1.20483,0.52516 -1.6006,-0.5062 z m 315.51869,0.18811 c 0,-0.57143 3,-1 7,-1 4,0 7,0.42857 7,1 0,0.57143 -3,1 -7,1 -4,0 -7,-0.42857 -7,-1 z m -193.51869,-2.18811 c -0.9304,-2.42459 -0.0843,-14.31189 1.01869,-14.31189 1.34116,0 1.87239,13.52761 0.58191,14.81809 -0.68846,0.68846 -1.20483,0.52516 -1.6006,-0.5062 z m 20.51869,-9.81189 c 0,-5.15738 0.3647,-7.89264 1,-7.5 0.55,0.33992 1,3.71492 1,7.5 0,3.78508 -0.45,7.16008 -1,7.5 -0.6353,0.39264 -1,-2.34262 -1,-7.5 z m -244.36052,6.30615 c -0.35171,-0.35172 -0.63948,-3.93948 -0.63948,-7.97282 0,-5.85185 0.30303,-7.33333 1.5,-7.33333 1.19894,0 1.5,1.49344 1.5,7.44098 0,6.87642 -0.77315,9.45253 -2.36052,7.86517 z m 417.36052,-1.30615 c 0,-0.57143 3,-1 7,-1 4,0 7,0.42857 7,1 0,0.57143 -3,1 -7,1 -4,0 -7,-0.42857 -7,-1 z m -293.33333,-0.66667 c -1.06408,-1.06408 -0.76998,-14.15144 0.33333,-14.83333 0.63507,-0.39249 1,2.32295 1,7.44098 0,8.08207 -0.0983,8.62734 -1.33333,7.39235 z m 99.81464,-39.52144 c -0.9304,-2.42459 -0.0843,-14.31189 1.01869,-14.31189 1.34116,0 1.87239,13.52761 0.58191,14.81809 -0.68846,0.68846 -1.20483,0.52516 -1.6006,-0.5062 z M 102.42966,393.41762 c 0,-6.33333 0.39683,-10.5 1,-10.5 0.55,0 1,2.05458 1,4.56574 0,5.53432 1.39592,8.43426 4.05993,8.43426 2.39901,0 3.94007,-3.54559 3.94007,-9.0651 0,-2.16419 0.45,-3.9349 1,-3.9349 0.57778,0 1,3.16667 1,7.5 0,4.33333 -0.42222,7.5 -1,7.5 -0.55,0 -1,-0.5051 -1,-1.12244 0,-0.77987 -0.45385,-0.74579 -1.48701,0.11166 -0.85288,0.70782 -2.55869,0.96514 -4,0.6034 -2.3274,-0.58414 -2.51299,-0.37083 -2.51299,2.88833 0,1.93548 -0.45,3.51905 -1,3.51905 -0.60317,0 -1,-4.16667 -1,-10.5 z m 486,9.56955 c 0,-0.58825 0.65917,-1.06955 1.46482,-1.06955 3.09465,0 3.66006,-3.61157 1.43974,-9.19644 -4.04477,-10.17402 -3.95181,-9.80356 -2.46018,-9.80356 0.78533,0 2.11892,2.17985 3.05171,4.98824 0.91126,2.74353 2.04617,5.22886 2.52203,5.52296 0.47586,0.2941 1.64864,-1.95061 2.60616,-4.98824 0.95753,-3.03763 2.31362,-5.52296 3.01353,-5.52296 1.28401,0 -1.61947,9.05674 -5.44999,17 -1.60472,3.32767 -6.18782,5.60118 -6.18782,3.06955 z m -326.8839,-5.95345 c -2.60538,-2.60538 -2.66032,-4.22245 -0.24482,-7.20546 1.58529,-1.95776 1.66171,-2.52051 0.5,-3.68222 -4.76508,-4.76508 4.41891,-11.02719 10.09037,-6.88012 1.09999,0.80433 1.53501,1.84809 1.07826,2.58713 -0.55134,0.89208 -1.06993,0.93455 -1.85278,0.1517 -1.31812,-1.31812 -6.349,-1.44325 -7.13136,-0.17737 -1.06474,1.72279 0.61882,3.97436 3.20175,4.28198 3.41386,0.40659 4.22483,2.80826 0.94826,2.80826 -5.20466,0 -6.47251,6.23733 -1.38676,6.82226 1.54106,0.17724 3.46878,-0.23119 4.28383,-0.90762 0.98794,-0.81992 1.81525,-0.89654 2.48191,-0.22988 1.49124,1.49124 -1.32958,3.40426 -5.92944,4.02123 -3.11157,0.41735 -4.36087,0.0885 -6.03922,-1.58989 z m -204.116106,-7.6161 0,-8.5 -3,0 c -1.65,0 -3,-0.45 -3,-1 0,-0.57778 3.166667,-1 7.5,-1 4.333333,0 7.5,0.42222 7.5,1 0,0.55 -1.35,1 -3,1 l -3,0 0,8.5 c 0,6.88889 -0.284314,8.5 -1.5,8.5 -1.215686,0 -1.5,-1.61111 -1.5,-8.5 z m 29.000003,7.31041 c 0,-0.65427 2.28789,-3.30397 5.0842,-5.88822 3.83071,-3.54021 5.0018,-5.28092 4.75,-7.06041 -0.40088,-2.83301 -3.9054,-3.68585 -5.79415,-1.41004 -1.61995,1.95192 -3.04005,1.9909 -3.04005,0.0834 0,-3.47254 7.61059,-4.72793 10.34501,-1.70644 2.712893,2.99771 1.93803,5.2223 -3.59501,10.32104 l -5.25,4.83792 5.25,0.006 c 2.8875,0.003 5.25,0.45615 5.25,1.00615 0,0.5641 -2.83333,1 -6.5,1 -4.35729,0 -6.5,-0.39215 -6.5,-1.18959 z m 32.442703,-0.22865 c -1.06675,-0.78003 -1.61364,-1.74416 -1.21529,-2.1425 0.39834,-0.39834 1.38292,-0.17762 2.18795,0.4905 1.98606,1.64828 7.08464,0.97917 7.08464,-0.92976 0,-0.88251 -1.71655,-2.04331 -4.16979,-2.81979 -4.29532,-1.35951 -5.69714,-3.06042 -4.68852,-5.68884 1.20157,-3.13124 10.35831,-3.10677 10.35831,0.0277 0,0.81452 -0.45,1.48095 -1,1.48095 -0.55,0 -1,-0.45 -1,-1 0,-0.55 -1.383,-1 -3.07332,-1 -4.04679,0 -3.65516,2.93823 0.57332,4.30141 4.02789,1.29851 5.5,2.57947 5.5,4.78585 0,3.5892 -6.84753,5.20715 -10.5573,2.4945 z m 353.78247,-4.67667 c -0.0758,-3.35219 -0.66257,-6.72719 -1.30393,-7.5 -0.86804,-1.04592 -0.87288,-1.40509 -0.0189,-1.40509 0.63095,0 1.57492,-1.125 2.09769,-2.5 0.92538,-2.43394 5,-3.65633 5,-1.5 0,0.55 -0.675,1 -1.5,1 -0.825,0 -1.5,0.675 -1.5,1.5 0,0.825 0.675,1.5 1.5,1.5 0.825,0 1.5,0.45 1.5,1 0,0.55 -0.675,1 -1.5,1 -1.17949,0 -1.5,1.38889 -1.5,6.5 0,4.71347 -0.36239,6.5 -1.31851,6.5 -0.93206,0 -1.35891,-1.78642 -1.45632,-6.09491 z m 7.77483,-1.40509 c 0,-4.33333 0.42222,-7.5 1,-7.5 0.57778,0 1,3.16667 1,7.5 0,4.33333 -0.42222,7.5 -1,7.5 -0.57778,0 -1,-3.16667 -1,-7.5 z m 5,6.90437 c 0,-0.3276 0.98145,-1.97395 2.181,-3.65855 l 2.18099,-3.06293 -2.21085,-3.84145 c -1.63567,-2.84202 -1.8546,-3.84144 -0.84151,-3.84144 0.75313,0 1.88192,1.125 2.50842,2.5 0.62649,1.375 1.52268,2.5 1.99153,2.5 0.46885,0 1.45454,-1.125 2.19042,-2.5 0.73588,-1.375 1.95036,-2.5 2.69884,-2.5 1.00033,0 0.77514,1.01775 -0.84998,3.84144 l -2.21085,3.84145 2.29009,3.21613 c 2.96642,4.16596 1.64695,5.52635 -1.55282,1.60098 l -2.44546,-3 -2.04831,2.75 c -1.86964,2.51011 -3.88151,3.62676 -3.88151,2.15437 z m 16.44113,-0.82376 c -1.44087,-1.05359 -1.94113,-2.62065 -1.94113,-6.08061 0,-3.45996 0.50026,-5.02702 1.94113,-6.08061 4.31643,-3.15625 10.55887,-0.54943 10.55887,4.40935 0,1.94303 -0.53328,2.17126 -5.07332,2.17126 -4.17019,0 -5.01577,0.29245 -4.75,1.64282 0.53398,2.71317 3.499,4.04081 5.8063,2.59989 2.54013,-1.58635 3.01702,-1.56259 3.01702,0.1503 0,2.76118 -6.33115,3.54777 -9.55887,1.1876 z m 8.55887,-8.38061 c 0,-1.54865 -2.42543,-3.2 -4.7,-3.2 -1.265,0 -2.3,0.1882 -2.3,0.41821 0,0.23002 -0.27314,1.13002 -0.60699,2 -0.49277,1.28415 0.16581,1.58179 3.5,1.58179 2.25885,0 4.10699,-0.36 4.10699,-0.8 z m 5.51673,7.52043 c -1.98443,-2.83317 -1.93116,-7.68373 0.11648,-10.60715 1.33257,-1.90252 2.25295,-2.23116 5,-1.78538 3.18221,0.51641 3.36679,0.38533 3.36679,-2.39077 0,-1.94412 0.50714,-2.93713 1.5,-2.93713 1.2316,0 1.5,1.75882 1.5,9.82942 l 0,9.82942 -4.98327,0.11351 c -4.05285,0.0923 -5.26645,-0.29079 -6.5,-2.05192 z m 7.28327,-0.92043 c 1.37853,-1.37853 1.57516,-6.65981 0.3216,-8.63749 -0.46628,-0.73562 -1.92189,-1.18562 -3.23469,-1 -1.97599,0.27939 -2.44142,1.00118 -2.70354,4.19265 -0.17415,2.12034 -0.0758,4.48284 0.21861,5.25 0.6566,1.71108 3.76942,1.82344 5.39802,0.19484 z m 16.23518,1.26574 c -0.56935,-1.06384 -1.03518,-2.3817 -1.03518,-2.92857 0,-2.09153 3.28552,-4.13717 6.64475,-4.13717 2.7949,0 3.4349,-0.35331 3.17002,-1.75 -0.36109,-1.90409 -5.81477,-3.13876 -5.81477,-1.31642 0,0.58653 -0.675,1.06642 -1.5,1.06642 -2.11747,0 -1.86331,-1.73519 0.43426,-2.96482 2.59527,-1.38894 6.39152,-1.3094 7.86574,0.16482 0.66,0.66 1.2,3.27 1.2,5.8 0,2.53 0.5325,5.1325 1.18333,5.78333 1.68198,1.68198 0.0782,2.86108 -2.06829,1.52059 -1.10211,-0.68829 -2.33798,-0.77601 -3.20452,-0.22746 -2.39642,1.51702 -5.78948,1.01822 -6.87534,-1.01072 z m 7.76482,-1.26574 c 2.30923,-2.30923 1.38163,-3.94423 -2.05,-3.61336 -2.49095,0.24017 -3.32463,0.83886 -3.56955,2.56336 -0.25425,1.79021 0.16467,2.25 2.05,2.25 1.30325,0 2.90955,-0.54 3.56955,-1.2 z m 7.2,-4.3 c 0,-4.33333 0.42222,-7.5 1,-7.5 0.55,0 1,0.54 1,1.2 0,0.93333 0.26667,0.93333 1.2,0 1.45618,-1.45618 3.8,-1.57954 3.8,-0.2 0,0.55 -0.68614,1 -1.52475,1 -1.94012,0 -3.47525,4.00435 -3.47525,9.0651 0,2.16419 -0.45,3.9349 -1,3.9349 -0.57778,0 -1,-3.16667 -1,-7.5 z m 10,0 c 0,-4.33333 0.42222,-7.5 1,-7.5 0.55,0 1,0.54 1,1.2 0,0.93333 0.26667,0.93333 1.2,0 1.45618,-1.45618 3.8,-1.57954 3.8,-0.2 0,0.55 -0.68614,1 -1.52475,1 -1.94012,0 -3.47525,4.00435 -3.47525,9.0651 0,2.16419 -0.45,3.9349 -1,3.9349 -0.57778,0 -1,-3.16667 -1,-7.5 z m 9.03518,5.56574 c -0.56935,-1.06384 -1.03518,-2.3817 -1.03518,-2.92857 0,-2.09153 3.28552,-4.13717 6.64475,-4.13717 2.7949,0 3.4349,-0.35331 3.17002,-1.75 -0.36109,-1.90409 -5.81477,-3.13876 -5.81477,-1.31642 0,0.58653 -0.675,1.06642 -1.5,1.06642 -2.11747,0 -1.86331,-1.73519 0.43426,-2.96482 2.59527,-1.38894 6.39152,-1.3094 7.86574,0.16482 0.66,0.66 1.2,3.27 1.2,5.8 0,2.53 0.5325,5.1325 1.18333,5.78333 1.68198,1.68198 0.0782,2.86108 -2.06829,1.52059 -1.10211,-0.68829 -2.33798,-0.77601 -3.20452,-0.22746 -2.39642,1.51702 -5.78948,1.01822 -6.87534,-1.01072 z m 7.76482,-1.26574 c 2.30923,-2.30923 1.38163,-3.94423 -2.05,-3.61336 -2.49095,0.24017 -3.32463,0.83886 -3.56955,2.56336 -0.25425,1.79021 0.16467,2.25 2.05,2.25 1.30325,0 2.90955,-0.54 3.56955,-1.2 z m -511.800006,-2.8 c 0,-0.57143 3,-1 7,-1 4.000003,0 7.000003,0.42857 7.000003,1 0,0.57143 -3,1 -7.000003,1 -4,0 -7,-0.42857 -7,-1 z m 63.000006,-13 c 0,-5.15738 0.3647,-7.89264 1,-7.5 0.55,0.33992 1,3.71492 1,7.5 0,3.78508 -0.45,7.16008 -1,7.5 -0.6353,0.39264 -1,-2.34262 -1,-7.5 z m 122.48131,6.81189 c -0.9304,-2.42459 -0.0843,-14.31189 1.01869,-14.31189 1.34116,0 1.87239,13.52761 0.58191,14.81809 -0.68846,0.68846 -1.20483,0.52516 -1.6006,-0.5062 z M 69.429654,384.91762 c 0,-0.57143 3,-1 7,-1 4.000003,0 7.000003,0.42857 7.000003,1 0,0.57143 -3,1 -7.000003,1 -4,0 -7,-0.42857 -7,-1 z m 307.481316,-1.18811 c -0.9304,-2.42459 -0.0843,-14.31189 1.01869,-14.31189 1.34116,0 1.87239,13.52761 0.58191,14.81809 -0.68846,0.68846 -1.20483,0.52516 -1.6006,-0.5062 z m 103.51869,-4.81189 c 0,-0.55 0.45,-1 1,-1 0.55,0 1,0.45 1,1 0,0.55 -0.45,1 -1,1 -0.55,0 -1,-0.45 -1,-1 z m -348,-22.5 c 0,-5.49071 0.36288,-8.39376 1,-8 0.55,0.33992 1,3.93992 1,8 0,4.06008 -0.45,7.66008 -1,8 -0.63712,0.39376 -1,-2.50929 -1,-8 z m 122.48366,7.318 c -0.93511,-2.43683 -0.0804,-15.318 1.01634,-15.318 1.33942,0 1.87176,14.52824 0.57968,15.82032 -0.68549,0.68549 -1.20268,0.52271 -1.59602,-0.50232 z m -122.48366,-29.818 c 0,-5.15738 0.3647,-7.89264 1,-7.5 0.55,0.33992 1,3.71492 1,7.5 0,3.78508 -0.45,7.16008 -1,7.5 -0.6353,0.39264 -1,-2.34262 -1,-7.5 z m 20.48131,-0.18811 c -0.9304,-2.42459 -0.0843,-14.31189 1.01869,-14.31189 1.34116,0 1.87239,13.52761 0.58191,14.81809 -0.68846,0.68846 -1.20483,0.52516 -1.6006,-0.5062 z m 124.18536,-0.47856 c -1.06408,-1.06407 -0.76998,-14.15145 0.33333,-14.83333 0.63507,-0.39249 1,2.32295 1,7.44098 0,8.08207 -0.0983,8.62734 -1.33333,7.39235 z m 232.53333,-1.53333 c -1.4965,-1.4965 -1.54648,-4.05352 -0.10736,-5.49264 0.78934,-0.78934 0.78989,-1.65833 0.002,-3.13055 -1.90146,-3.55292 2.62051,-6.37456 7.32359,-4.56982 2.9581,1.13513 1.59633,2.26963 -2.01991,1.68279 -3.15151,-0.51142 -3.55646,-0.34732 -3.23978,1.31287 0.20132,1.05543 1.35578,2.03915 2.6017,2.2169 2.89932,0.41365 2.89268,1.94862 -0.0102,2.3609 -1.44596,0.20536 -2.36419,1.12359 -2.56955,2.56955 -0.25858,1.82071 0.15945,2.25 2.19098,2.25 1.3808,0 2.79319,-0.45734 3.13865,-1.01631 0.34546,-0.55897 1.11519,-0.71528 1.71051,-0.34736 1.59801,0.98765 -2.08344,3.36367 -5.21176,3.36367 -1.43488,0 -3.14887,-0.54 -3.80887,-1.2 z m 14.5277,0.47827 c 1.77523,-0.22091 4.92523,-0.22454 7,-0.008 2.07476,0.21647 0.6223,0.39722 -3.2277,0.40166 -3.85,0.004 -5.54754,-0.17268 -3.7723,-0.3936 z m 18.0223,0.0595 c 0.85226,-0.3439 1.25,-3.02339 1.25,-8.42105 0,-7.70498 -0.0646,-7.91667 -2.41667,-7.91667 -1.32916,0 -2.64364,0.5625 -2.92105,1.25 -0.30132,0.74674 -0.53617,0.54544 -0.58333,-0.5 -0.0689,-1.52741 0.93859,-1.75 7.92105,-1.75 7.63864,0 7.99863,0.10163 7.96959,2.25 -0.0272,2.0094 -0.1394,2.06287 -1.04969,0.5 -0.5606,-0.9625 -2.12192,-1.75 -3.46959,-1.75 -2.39433,0 -2.45031,0.18109 -2.45031,7.92668 0,6.70833 0.26898,7.99696 1.75,8.38399 0.9625,0.25153 -0.275,0.474 -2.75,0.49438 -2.475,0.0204 -3.9375,-0.18992 -3.25,-0.46733 z m 13.52095,-8.33772 c 1.75609,-4.95 3.49084,-9 3.85499,-9 0.36416,0 -0.7527,4.04714 -2.48192,8.99364 -1.72921,4.94651 -3.46396,8.99651 -3.85499,9 -0.39103,0.003 0.72584,-4.04364 2.48192,-8.99364 z m 9.97905,8.31067 c 1.45422,-0.38002 1.75,-1.62804 1.75,-7.38399 0,-5.91667 -0.25517,-6.93185 -1.75,-6.96211 -1.33561,-0.027 -1.15802,-0.37385 0.75,-1.46457 1.375,-0.78602 2.8375,-1.44507 3.25,-1.46456 0.4125,-0.0195 0.75,3.75656 0.75,8.39124 0,7.18452 0.25796,8.49408 1.75,8.88399 0.9625,0.25153 -0.5,0.45733 -3.25,0.45733 -2.75,0 -4.2125,-0.2058 -3.25,-0.45733 z m 13.19113,-0.73006 c -1.55789,-1.13915 -1.94113,-2.63582 -1.94113,-7.58061 0,-6.4016 1.58791,-9 5.5,-9 3.91209,0 5.5,2.5984 5.5,9 0,6.4016 -1.58791,9 -5.5,9 -0.88976,0 -2.49125,-0.63873 -3.55887,-1.41939 z m 5.48885,-0.99624 c 1.85721,-2.2378 0.9584,-12.63637 -1.20845,-13.98086 -2.51559,-1.56088 -3.68728,0.67257 -3.70622,7.0647 -0.0234,7.89073 1.88132,10.57112 4.91467,6.91616 z m -57.28003,-3.69909 c -3.21752,-1.66019 -5.69252,-3.16021 -5.5,-3.33338 1.52482,-1.37155 12.85005,-6.38587 12.85005,-5.68944 0,0.49019 -2.25,1.85918 -5,3.04219 -2.75,1.18302 -5,2.35586 -5,2.6063 0,0.25045 2.25,1.59552 5,2.98905 4.60025,2.33112 6.12848,3.57237 4.25,3.4519 -0.4125,-0.0265 -3.38252,-1.40643 -6.60005,-3.06662 z M 132.42966,310.91762 c 0,-5.15738 0.3647,-7.89264 1,-7.5 0.55,0.33992 1,3.71492 1,7.5 0,3.78508 -0.45,7.16008 -1,7.5 -0.6353,0.39264 -1,-2.34262 -1,-7.5 z m 265,-5 c 0,-5.15738 0.3647,-7.89264 1,-7.5 0.55,0.33992 1,3.71492 1,7.5 0,3.78508 -0.45,7.16008 -1,7.5 -0.6353,0.39264 -1,-2.34262 -1,-7.5 z m -244.51634,5.818 c -0.93511,-2.43683 -0.0804,-15.318 1.01634,-15.318 1.33942,0 1.87176,14.52824 0.57968,15.82032 -0.68549,0.68549 -1.20268,0.52271 -1.59602,-0.50232 z m 124.18301,-1.48467 c -1.06408,-1.06407 -0.76998,-14.15144 0.33333,-14.83333 0.63507,-0.39249 1,2.32295 1,7.44098 0,8.08207 -0.0983,8.62734 -1.33333,7.39235 z m 120.33333,-25.83333 c 0,-4.15738 0.37181,-6.38824 1,-6 0.55,0.33992 1,3.03992 1,6 0,2.96008 -0.45,5.66008 -1,6 -0.62819,0.38824 -1,-1.84262 -1,-6 z m -244.52703,4.29016 c -0.91152,-2.37539 -0.10057,-11.29016 1.02703,-11.29016 1.3529,0 1.87852,10.52148 0.58999,11.81001 -0.69923,0.69924 -1.21254,0.53422 -1.61702,-0.51985 z m 124.1937,-0.45683 c -1.06011,-1.06011 -0.77206,-12.15016 0.33333,-12.83333 0.63059,-0.38973 1,1.98962 1,6.44098 0,7.09675 -0.10855,7.61714 -1.33333,6.39235 z"
       id="path3082"
       inkscape:connector-curvature="0" />
  </g>
</svg>
